<svg width="304" height="304" viewBox="0 0 304 304" xmlns="http://www.w3.org/2000/svg" xmlns:xlink="http://www.w3.org/1999/xlink">
    <defs>
        <path id="wf4sulagzc" d="M0 0h39v70H0z"/>
        <path id="u7if85sh8e" d="M0 247h247V0H0z"/>
        <path id="4olgwlvakg" d="M0 88.07h88V0H0z"/>
        <path id="iwpqb54poi" d="M0 88.07h88V0H0z"/>
        <rect id="njsm5jehqa" x="0" y="0" width="304" height="304" rx="20"/>
    </defs>
    <g fill="none" fill-rule="evenodd">
        <mask id="bxcu1kc8ib" fill="#fff">
            <use xlink:href="#njsm5jehqa"/>
        </mask>
        <use fill="#202D37" fill-rule="nonzero" xlink:href="#njsm5jehqa"/>
        <circle fill="#34414D" fill-rule="nonzero" mask="url(#bxcu1kc8ib)" cy="304.5" r="33"/>
        <circle fill="#202D37" fill-rule="nonzero" mask="url(#bxcu1kc8ib)" cx="-10" cy="314.5" r="33"/>
        <circle fill="#34414D" fill-rule="nonzero" mask="url(#bxcu1kc8ib)" cx="304" r="33"/>
        <circle fill="#202D37" fill-rule="nonzero" mask="url(#bxcu1kc8ib)" cx="314" cy="-10" r="33"/>
        <path d="M272.139 12H74.222C39.884 12.054 12.142 39.82 12 74.222v218.105c0-.9 18.796-1.01 56.389-.327 39.377-.03 161.643 0 161.389 0 34.48 0 62.222-27.765 62.222-62.222V12c-13.258-.269-19.878-.269-19.861 0z" fill="#34414D" fill-rule="nonzero" mask="url(#bxcu1kc8ib)"/>
        <g mask="url(#bxcu1kc8ib)">
            <g transform="translate(12 12)">
                <circle fill="#34414D" cx="15" cy="15" r="15"/>
                <path d="m20.536 10.247 2.829 2.829a2 2 0 0 1 0 2.828L17 22.268a2 2 0 0 1-2.829 0l-2.828-2.828a2 2 0 0 1 0-2.829l.658-.66a3.5 3.5 0 1 0 4.95-4.949l.756-.755a2 2 0 0 1 2.828 0z" fill="#202D37"/>
                <path d="M24.642 3.331c2.862 2.74 7.096 3.426 12.7 2.056l-6.569 8.467-8.19-3.274 2.06-7.249zM4.615 39.105c2.912-5.15 3.312-9.321 1.198-12.511L15 30.139l-4.132 11.22-6.253-2.254z" fill="#34414D"/>
            </g>
        </g>
        <g mask="url(#bxcu1kc8ib)">
            <g transform="rotate(-180 146 146)">
                <circle fill="#34414D" cx="15" cy="15" r="15"/>
                <path d="m20.536 10.247 2.829 2.829a2 2 0 0 1 0 2.828L17 22.268a2 2 0 0 1-2.829 0l-2.828-2.828a2 2 0 0 1 0-2.829l.658-.66a3.5 3.5 0 1 0 4.95-4.949l.756-.755a2 2 0 0 1 2.828 0z" fill="#202D37"/>
                <path d="M24.642 3.331c2.862 2.74 7.096 3.426 12.7 2.056l-6.569 8.467-8.19-3.274 2.06-7.249zM4.615 39.105c2.912-5.15 3.312-9.321 1.198-12.511L15 30.139l-4.132 11.22-6.253-2.254z" fill="#34414D"/>
            </g>
        </g>
        <g mask="url(#bxcu1kc8ib)">
            <g transform="translate(28 29)">
                <path d="M118.282 230.914c-8.533-.7-16.386-4.896-21.596-11.595l-.037-.037a23.224 23.224 0 0 1-1.473-2.098l-.113-.184-11.364 3.975.075.258c.227.773.378 1.473.567 2.172l-2.341.81.038.257a75.491 75.491 0 0 1 2.114 17.706c0 .7-.038 1.399-.038 2.098v.295h2.492c0 .699-.038 1.398-.076 2.135V247h32.016v-2.466H121v-13.546h-.264c-.793 0-1.624 0-2.454-.074M107.377 193.935c0-.712 0-1.462.072-2.287v-.112l-4.4-4.536-.216.262C99.695 191.236 98 196.26 98 201.432 98 213.842 107.738 224 119.711 224H120v-7.497l-.108-.075c-7.718-4.611-12.515-13.271-12.515-22.493M180.57 93.9l-.214-.188c-1.645-1.432-3.504-2.526-5.507-3.355-1.717-.64-3.433-1.13-5.221-1.357h-.107l-11.623 12.251a14.066 14.066 0 0 0-3.683 7.426 13.75 13.75 0 0 0-.215 2.413c0 7.69 5.9 13.91 13.196 13.91 4.685 0 9.048-2.676 11.48-7.012l.25-.452v-.038l.036-.113c.464-.98.822-2.035 1.072-3.09v-.076l-.035-.076c-.93-2.299-1.395-4.75-1.395-7.275 0-.792.107-1.583.179-2.413a19.523 19.523 0 0 1 1.062-4.34l.01.005c.287-.829.644-1.658 1.073-2.412l.072-.189-.107-.113a32.71 32.71 0 0 0-1.61-1.583c.322-.565.68-1.13 1.11-1.696l.178-.226zM185.987 220.188l-.075-.23-.223.038c-1.785.345-3.571.46-5.32.46-8.556 0-16.628-3.372-22.84-9.425a71.426 71.426 0 0 1-1.675-1.763l-.223-.268-.223.268c-.52.652-1.042 1.303-1.6 1.878l-.037.038c-4.91 5.326-11.532 8.237-18.675 8.237-1.562 0-3.162-.153-4.761-.46l-.335-.038V229h50.37c2.827 0 5.617-.307 8.295-.958l.335-.076-.112-.307a76.383 76.383 0 0 1-2.083-5.096c-.26-.766-.558-1.57-.818-2.375M131.516 191.487v5.226h4.946c.22.736.33 1.55.33 2.362 0 4.26-3.114 7.744-7.107 7.976h-.256v3.097h.22v.039c1.611.542 3.26.813 4.944.813 5.312 0 10.147-2.555 13.334-6.93l.073-.116-.073-.194a38.544 38.544 0 0 1-3.773-16.726c0-2.361.183-4.8.623-7.124l.036-.193-.11-.078c-2.893-2.4-6.373-3.639-10.073-3.639-9.157 0-16.63 7.86-16.63 17.539 0 1.78.256 3.523.77 5.226h.036v.233h2.93v-.271c.22-4.26 3.517-7.589 7.546-7.589.733 0 1.502.116 2.234.349M236.48 106.373c0 .756-.038 1.548-.077 2.34V109h8.026v-2.303H247V88.202h-.312c-.779.036-1.48.072-2.26.072V85.9h-.311a84.95 84.95 0 0 1-14.455-.828L229 85l.39.504c4.675 6.117 7.09 13.385 7.09 20.87" fill="#202D37"/>
                <path d="M204.962 197.897v-.113s.038-1.059.038-1.588c0-1.229.013-2.792-.085-4.083h.009l-.018-.13-.004-.05h-.003c-.506-4.094-1.705-8.04-3.607-11.693l-.19-.34-1.967 1.966c-.378-1.36-.946-2.684-1.664-3.97l-.19-.34-7.604 7.6.038.113c.151.605.19 1.248.19 1.89 0 5.18-4.2 9.377-9.384 9.377-1.248 0-2.383-.265-3.518-.718v-5.37h-5.259c-.34-1.058-.567-2.154-.567-3.289 0-5.18 4.2-9.376 9.382-9.376.606 0 1.287.075 1.892.189l.113.038 7.605-7.6-.34-.189a16.675 16.675 0 0 0-3.973-1.664l2.27-2.268-.303-.19c-5.259-3.024-11.198-4.65-17.29-4.65h-1.286c-17.706 0-34.239-9.49-43.167-24.84v-.038c-.416-.756-.832-1.475-1.21-2.23l-.19-.341-7.68 7.637.076.19c.227.302.378.604.567.907.265.454.53.87.795 1.323l.189.303c6.583 10.095 16.154 18.148 27.315 22.836a29.324 29.324 0 0 1 11.955 9.717 24.665 24.665 0 0 0-2.232 10.284c0 5.898 2.157 11.645 6.016 16.145 4.729 5.52 11.614 8.658 18.878 8.658 6.47 0 12.56-2.458 17.063-6.768l7.34-7.335zM109.392 182l.263-.295c.376-.773.751-1.473 1.202-2.173 3.529-5.672 9.047-9.723 15.58-11.38l.563-.11-.488-.332a51.11 51.11 0 0 1-2.403-1.805c-.263-.22-.563-.479-.826-.7-4.918-4.051-9.273-8.692-12.877-13.848-.488-.7-.938-1.363-1.389-2.062l-.188-.295L94 163.511l1.727 1.694L94 166.9l15.392 15.1zM177.452 81.952a31.809 31.809 0 0 1 10.912 5.864c.639.556 1.316 1.113 1.956 1.744l.113.111.188-.074a18.315 18.315 0 0 1 7.412-1.559c10.235 0 18.588 8.202 18.588 18.334 0 3.266-.903 6.494-2.596 9.315l-.189.26.264.111c.752.334 1.43.742 2.145 1.188l.032.022-.032.052a25.93 25.93 0 0 1 6.848 6.383l.225.297.226-.371c3.575-5.084 5.456-11.06 5.456-17.294 0-10.392-5.268-20.004-14.148-25.682l-.037-.037c-7.676-2.746-14.863-6.606-21.335-11.505l-.188-.111-1.63 1.987a35.991 35.991 0 0 1-1.794-1.393l-.225-.186L177 81.841l.452.111zM144.965 118.281v-.037c-.254-.895-.508-1.827-.69-2.722l-.072-.522-7.26 7.458.037.186c.254.746.544 1.529.871 2.312L136 126.858l.073.186c4.9 10.963 14.736 18.793 26.241 20.919l.327.037h.036v-2.536c.726.112 1.38.224 2.105.299l.218.074v-11.112l-.254-.037a18.155 18.155 0 0 1-2.36-.373c-8.13-1.715-14.808-7.868-17.421-16.034M81.47 216l10.465-3.75-.075-.257c-.265-.698-.567-1.507-.794-2.279-.831-2.646-1.209-5.44-1.209-8.234 0-6.947 2.57-13.747 7.254-19.077a38.883 38.883 0 0 1 1.662-1.728l.227-.22L90.31 172l-1.737 1.69-1.738-1.69-19.684 19.151.189.22c.491.552.945 1.14 1.398 1.692L67 194.753l.113.184a77.387 77.387 0 0 1 11.108 19.299l.075.257 2.305-.809c.264.699.529 1.36.793 2.059l.076.257z" fill="#202D37"/>
                <g transform="translate(208 158)">
                    <mask id="u3wtnvar7d" fill="#fff">
                        <use xlink:href="#wf4sulagzc"/>
                    </mask>
                    <path d="M36.542 12.971h-7.04v12.896c0 3.215-2.57 5.786-5.7 5.786-2.756 0-4.88-1.777-5.587-4.727-1.676-9.038-5.587-17.547-11.25-24.733v-.037A86.713 86.713 0 0 0 5.365.226L5.14 0 .186 5.03l.186.227c.485.567.932 1.134 1.379 1.701L0 8.736l.112.227c6.258 8.244 9.573 18.152 9.573 28.552v2.76a36.044 36.044 0 0 0 15.533 29.612l.223.113.224-.076c.521-.605.968-1.172 1.415-1.777.596.378 1.192.794 1.9 1.172l.223.114.112-.227C35.648 60.62 39 50.335 39 39.519V15.467h-2.458v-2.496z" fill="#202D37" mask="url(#u3wtnvar7d)"/>
                </g>
                <path fill="#202D37" d="M127 245.776h2.564V248h29.911l-.039-2.224H162V240h-35zM244.519 118.426V116h-8.572l-.037.22c-.15.81-.376 1.618-.602 2.39l-.075.331h.022a36.972 36.972 0 0 1-7.992 14.044l-.263.294.376.11c6.09 1.986 10.188 7.537 10.188 13.824V166h6.992v-2.426H247v-45.148h-2.481zM225 237.836l-.293-.267c-7.811-6.363-13.422-14.9-16.172-24.693l-.11-.495-.33.343a67.464 67.464 0 0 1-1.614 1.639c-.183-.61-.33-1.296-.513-1.906l-.11-.457-.33.305a36.061 36.061 0 0 1-6.308 4.84l-.22.114.073.228c.22.8.477 1.486.697 2.134l.11.305a59.742 59.742 0 0 0 14.632 22.711l.33.305a32.922 32.922 0 0 0 2.09 1.906l.11.076.11.076c2.604-1.067 5.061-2.4 7.445-3.887l.33-.228-.33-.267c-.587-.457-1.174-.877-1.724-1.372.587-.343 1.247-.8 1.834-1.181l.293-.229z"/>
                <mask id="ngw5xn8t2f" fill="#fff">
                    <use xlink:href="#u7if85sh8e"/>
                </mask>
                <path fill="#202D37" mask="url(#ngw5xn8t2f)" d="M246.99 164.005h.02v-.01h-.02zM193.77 236.191l-.112-.191-.226.038c-4.321 1.184-8.793 1.757-13.265 1.757H166v6.646h2.48V247h28.672c1.428 0 2.856-.115 4.284-.191l.564-.038-.376-.458a70.34 70.34 0 0 1-7.854-10.122M227.064 168.818l.077.182v-.036H230V146.99c0-4.43-3.786-7.99-8.5-7.99s-8.5 3.596-8.5 7.99c0 2.07.811 3.995 2.318 5.52a59.783 59.783 0 0 1 11.746 16.308M22 10.194l.293.266c7.789 6.357 13.384 14.883 16.126 24.665l.11.494.329-.342c.512-.571 1.06-1.104 1.609-1.637.183.61.33 1.294.512 1.903l.11.457.402-.419a35.967 35.967 0 0 1 6.29-4.834l.219-.114-.073-.228c-.22-.8-.476-1.523-.695-2.132l-.11-.304a59.684 59.684 0 0 0-14.59-22.685l-.33-.305c-.694-.685-1.39-1.294-2.084-1.903L30.008 3l-.182.038c-2.597 1.066-5.047 2.398-7.424 3.882l-.329.229.33.266c.584.457 1.133.876 1.718 1.37-.585.343-1.243.8-1.828 1.18l-.293.229zM2.472 132h8.54l.074-.294c.15-.808.375-1.616.6-2.388l.074-.33a38.002 38.002 0 0 1 7.978-13.998l.262-.293-.375-.11c-6.067-1.985-10.15-7.532-10.15-13.814V82H2.473v2.425H0v45.15h2.472V132zM165.564 32l-10.516 3.648.076.258c.301.7.565 1.511.791 2.285v.037c.83 2.69 1.206 5.454 1.206 8.218 0 6.964-2.563 13.782-7.236 19.125a38.897 38.897 0 0 1-1.659 1.732l-.226.221L156.669 76l1.734-1.695L160.137 76l19.712-19.089-.188-.22c-.49-.554-.943-1.143-1.395-1.696L180 53.3l-.113-.184a77.676 77.676 0 0 1-11.081-19.347l-.076-.258-2.299.81c-.301-.7-.528-1.363-.791-2.063l-.076-.258zM53.221 10.809l.113.191.262-.076c4.317-1.184 8.785-1.757 13.252-1.757H81V2.52h-2.478V0H49.88c-1.464 0-2.89.076-4.317.191L45 .229l.375.459c2.89 3.131 5.556 6.53 7.846 10.121M120 8V2.2h-2.561V0H87.561v2.2H85V8h32.167zM115.467 55.487V50.24h-4.951a8.278 8.278 0 0 1-.33-2.354c0-4.244 3.117-7.717 7.115-7.949h.256V36.85h-.22v-.039a15.497 15.497 0 0 0-4.95-.81c-5.282 0-10.123 2.547-13.314 7.023L99 43.14l.073.193a38.272 38.272 0 0 1 3.778 16.67c0 2.354-.184 4.785-.624 7.1l-.036.193.11.078A15.642 15.642 0 0 0 112.386 71C121.555 71 129 63.128 129 53.442c0-1.775-.257-3.511-.77-5.21h-.037v-.23h-2.934v.27c-.22 4.244-3.52 7.563-7.555 7.563a7.51 7.51 0 0 1-2.237-.348M139.644 53.99c0 .712 0 1.462-.073 2.287v.112L144.015 61l.144-.262c3.143-3.974 4.841-8.997 4.841-14.17C149 34.158 139.246 24 127.253 24H127v7.422l.108.075c7.731 4.611 12.536 13.271 12.536 22.493M129.713 16.069h.038c8.516.7 16.353 4.938 21.553 11.646.528.663.98 1.364 1.47 2.1l.113.185 11.417-3.943-.075-.258c-.226-.774-.377-1.475-.565-2.175l2.336-.81-.038-.259a75.812 75.812 0 0 1-2.11-17.727c0-.7.038-1.4.038-2.1v-.296h-2.487c0-.663.038-1.363.075-2.137V0h-31.991v2.432H127v13.563h.264c.791 0 1.62 0 2.449.074M34 101.036c0-2.072-.813-4.072-2.324-5.527-4.84-4.8-8.829-10.327-11.772-16.327L19.827 79H17v22c0 4.436 3.834 8 8.52 8 4.685 0 8.518-3.6 8.48-7.964M66.429 154.094l.214.189c1.643 1.434 3.5 2.528 5.5 3.359 1.643.641 3.428 1.132 5.214 1.358h.107l11.643-12.226a14.094 14.094 0 0 0 3.679-7.434c.143-.793.214-1.623.214-2.415C93 129.226 87.107 123 79.821 123c-4.785 0-9.107 2.642-11.464 6.981l-.214.453-.072.113A15.776 15.776 0 0 0 67 133.642l-.036.075.036.075a19.378 19.378 0 0 1 1.393 7.283c0 .793-.107 1.585-.179 2.416a19.394 19.394 0 0 1-1.049 4.35l-.022-.01c-.286.83-.643 1.66-1.072 2.414l-.071.189.107.113c.5.566 1.072 1.132 1.607 1.623a15.272 15.272 0 0 1-1.107 1.698l-.178.226z"/>
                <path d="m210.668 137.388.113.527.338-.452c.525-.64 1.126-1.204 1.726-1.768a15.31 15.31 0 0 1 5.855-3.16l.3-.076-.113-.3c-2.664-6.17-8.819-10.159-15.537-10.159h-13.773l-.075.188a24.086 24.086 0 0 1-18.24 12.943l-.262.037v11.476h.263c.713.037 1.426.037 2.176.075v2.52h.263c9.87.64 19.065 4.252 26.721 10.573l.225.188 1.727-1.806c.562.414 1.088.94 1.65 1.43l.226.188 5.48-5.493-.076-.188c-1.126-2.032-1.801-4.402-1.876-6.735v-.526c0-.565.037-1.205.112-1.92l.075-.526-.488.263c-.9.49-1.838.715-2.852.715-3.19 0-5.93-2.483-6.192-5.719l4.766-1.354-1.35-4.816a6.438 6.438 0 0 1 2.814-.64c2.74 0 5.216 1.844 6.004 4.515M57.513 125.925a24.069 24.069 0 0 1 18.224-12.956l.263-.037V101.37h-.263c-.712-.038-1.424-.038-2.174-.076v-2.523H73.3c-9.862-.64-19.05-4.256-26.7-10.583L46.375 88l-1.763 1.77c-.562-.414-1.125-.941-1.65-1.431l-.225-.188-5.474 5.498.075.188c1.124 2.034 1.8 4.407 1.874 6.742v.527c0 .565-.037 1.205-.112 1.92l-.075.528.488-.264c.9-.49 1.837-.715 2.85-.715 3.187 0 5.925 2.485 6.187 5.724l-4.762 1.356 1.35 4.82c-.863.415-1.8.641-2.813.641-2.738 0-5.213-1.845-6-4.52l-.113-.527-.337.377c-.525.64-1.125 1.205-1.725 1.77-1.688 1.469-3.712 2.599-5.85 3.164l-.3.075.113.301c2.662 6.177 8.812 10.169 15.525 10.169l13.8.075.075-.075zM10.597 141.619c0-.754.04-1.543.078-2.332V139H2.571v2.368H0v18.44h.312c.779-.037 1.48-.073 2.26-.073v2.368h.311c4.753-.072 9.662.144 14.455.825L18 163l-.312-.574c-4.675-6.099-7.09-13.345-7.09-20.807M2.46 76.05h6.973V63.175c0-3.21 2.573-5.777 5.705-5.777 2.759 0 4.884 1.775 5.592 4.72 1.678 9.023 5.593 17.518 11.26 24.692v.038a86.623 86.623 0 0 0 1.604 1.925l.223.227 4.997-5.173-.187-.226c-.447-.529-.895-1.095-1.38-1.7L39 80.128l-.112-.188c-6.264-8.231-9.582-18.123-9.582-28.506v-2.757c0-11.817-5.854-22.88-15.548-29.563L13.534 19l-.186.189c-.522.604-.97 1.208-1.417 1.774-.596-.377-1.193-.793-1.901-1.17l-.224-.113-.112.226C3.356 28.476 0 38.746 0 49.545v24.013h2.46v2.492zM244.995 166.01h.01v-.02h-.01zM41 142c0 4.422 3.578 8 8 8 4.422 0 8-3.618 8-8 0-4.422-3.578-8-8-8-4.422 0-8 3.578-8 8" fill="#202D37" mask="url(#ngw5xn8t2f)"/>
                <path d="M69.548 166.002a31.804 31.804 0 0 1-10.912-5.868c-.639-.557-1.316-1.114-1.956-1.745l-.113-.111-.188.074a18.304 18.304 0 0 1-7.412 1.56c-10.235 0-18.588-8.208-18.588-18.346 0-3.268.903-6.5 2.596-9.322l.189-.26-.264-.11c-.752-.335-1.43-.744-2.145-1.19-2.671-1.67-4.966-3.862-6.848-6.387l-.225-.297-.226.334C19.88 129.422 18 135.401 18 141.64c0 10.398 5.268 20.017 14.148 25.699l.037.037c7.676 2.748 14.863 6.61 21.335 11.513l.188.111 1.693-2.005c.602.482 1.166.89 1.73 1.374l.226.185L70 166.114l-.452-.112zM206 106c0-4.422-3.578-8-8-8-4.422 0-8 3.578-8 8 0 4.422 3.578 8 8 8 4.422 0 8-3.658 8-8M102.046 129.756v.037c.254.932.508 1.79.689 2.685l.073.522 7.25-7.458-.037-.186a37.166 37.166 0 0 0-.87-2.312l1.849-1.902-.073-.186c-4.893-10.963-14.717-18.793-26.208-20.919l-.326-.037v2.498a22.25 22.25 0 0 0-2.103-.335l-.29-.038v11.112l.254.038c.761.074 1.558.186 2.356.372 8.156 1.753 14.826 7.906 17.436 16.109M61.011 27.77l.075.23.223-.038c1.784-.347 3.569-.462 5.316-.462 8.55 0 16.618 3.385 22.827 9.462a71.569 71.569 0 0 1 1.673 1.769l.223.269.26-.192c.483-.693 1.041-1.308 1.599-1.923 4.907-5.347 11.525-8.27 18.663-8.27 1.561 0 3.16.154 4.758.462l.372.077V19H66.662c-2.825 0-5.613.308-8.327.885l-.335.077.112.307a76.873 76.873 0 0 1 2.081 5.116c.298.769.558 1.577.818 2.384M137.572 65l-.188.351c-.376.82-.752 1.56-1.204 2.302-3.537 6.01-9.068 10.301-15.616 12.057l-.564.117.49.351c.827.586 1.617 1.249 2.407 1.912.264.234.565.508.828.742 4.93 4.292 9.294 9.208 12.907 14.67.489.742.94 1.444 1.392 2.186l.188.312L153 84.588l-1.73-1.795 1.73-1.795L137.572 65zM41.038 50.24v.114S41 51.41 41 51.94c0 1.284.113 2.644.227 3.966l-.076.076c.491 4.155 1.7 8.158 3.627 11.86l.19.34 1.964-1.964c.378 1.36.945 2.682 1.663 3.966l.189.34 7.594-7.63-.038-.113c-.15-.605-.188-1.247-.188-1.889 0-5.175 4.194-9.368 9.37-9.368 1.21 0 2.38.265 3.514.718v5.364h5.252c.378 1.057.605 2.153.605 3.286 0 5.175-4.194 9.368-9.37 9.368-.605 0-1.286-.076-1.89-.19l-.113-.037-7.595 7.592.34.189a17.325 17.325 0 0 0 3.967 1.662l-2.267 2.266.302.19c5.253 3.021 11.185 4.645 17.268 4.645h1.285c17.683 0 34.195 9.481 43.112 24.817v.037c.415.756.831 1.474 1.209 2.229l.189.34 7.67-7.781-.076-.189c-.188-.302-.377-.642-.566-.944-.227-.378-.492-.831-.756-1.209l-.189-.302c-6.574-10.085-16.134-18.13-27.28-22.815a29.288 29.288 0 0 1-11.94-9.707 24.647 24.647 0 0 0 2.23-10.274c0-5.893-2.155-11.634-6.009-16.13C79.691 39.136 72.814 36 65.56 36a24.753 24.753 0 0 0-17.192 6.912l-7.33 7.328z" fill="#202D37" mask="url(#ngw5xn8t2f)"/>
            </g>
        </g>
        <g mask="url(#bxcu1kc8ib)">
            <g transform="translate(204 12)">
                <path d="M54.876 20.973c0 1.7 1.382 3.046 3.047 3.046 1.7 0 3.082-1.346 3.046-3.046 0-1.7-1.346-3.047-3.046-3.047a3.024 3.024 0 0 0-3.047 3.047M70.216 30.184c0-1.7-1.382-3.047-3.047-3.047a3.024 3.024 0 0 0-3.047 3.047c0 1.7 1.382 3.046 3.047 3.046 1.665 0 3.011-1.381 3.047-3.046M78.576 33.266l-.673-.673.673-.674.674.674-.674.673zm.355 34.895V57.887a2.981 2.981 0 0 0 2.763-2.976c0-1.558-1.204-2.87-2.763-2.975V33.868l1.133-1.134-1.417-1.417-1.417 1.417 1.134 1.134v18.068c-1.523.106-2.763 1.417-2.763 2.975 0 1.56 1.204 2.87 2.763 2.976v10.274c-3.118.106-5.562 2.692-5.562 5.81 0 3.188 2.622 5.81 5.81 5.81 1.559 0 2.976-.602 4.145-1.665a5.73 5.73 0 0 0 1.736-4.145c0-3.118-2.48-5.704-5.562-5.81zM55.55 8.928l.672.673-.673.673-.673-.673.673-.673zm-35.57.991h10.274c.107 1.524 1.417 2.764 2.976 2.764 1.524 0 2.87-1.205 2.976-2.764h18.068l1.133 1.134 1.417-1.417-1.417-1.417-1.133 1.134H36.206C36.1 7.829 34.79 6.589 33.23 6.589s-2.87 1.205-2.976 2.764H19.981c-.107-3.118-2.693-5.562-5.81-5.562-3.189 0-5.81 2.621-5.81 5.81 0 3.188 2.621 5.81 5.81 5.81 3.117 0 5.633-2.516 5.81-5.492zM67.417 17.536a3.198 3.198 0 0 0 3.188 3.189 3.175 3.175 0 0 0 3.189-3.189 3.175 3.175 0 0 0-3.189-3.188 3.175 3.175 0 0 0-3.188 3.188" fill="#202D37"/>
                <path d="M64.618 13.533h1.205a6.168 6.168 0 0 0-1.453 4.003c0 1.488.567 2.905 1.453 4.003h-1.205c-.779-1.169-1.169-2.586-1.24-4.003 0-1.417.461-2.798 1.24-4.003zm1.984 8.715a6.015 6.015 0 0 0 4.003 1.488 6.165 6.165 0 0 0 3.968-1.417v1.204a6.923 6.923 0 0 1-3.968 1.24 7.117 7.117 0 0 1-4.003-1.24v-1.275zm7.723-4.712a3.72 3.72 0 1 1-7.438.001 3.72 3.72 0 0 1 7.438 0zm-7.723-5.987a8.021 8.021 0 0 1 4.003-1.31c1.382 0 2.764.46 3.968 1.24v1.204a6.165 6.165 0 0 0-3.968-1.417c-1.487 0-2.905.602-4.003 1.488v-1.205zm8.857 1.984h1.204a7.033 7.033 0 0 1 1.24 4.003 7.117 7.117 0 0 1-1.24 4.003H75.46a6.41 6.41 0 0 0 1.417-4.003 6.41 6.41 0 0 0-1.417-4.003zm-11.124 8.538h1.736v1.771l.106.071c1.31.886 2.834 1.382 4.428 1.382a7.659 7.659 0 0 0 4.429-1.417l.106-.071V22.07h1.736l.07-.106c.887-1.311 1.383-2.835 1.383-4.429 0-1.594-.496-3.117-1.382-4.428l-.071-.106H75.14v-1.736l-.106-.071c-1.311-.886-2.834-1.382-4.429-1.382-1.594 0-3.117.496-4.428 1.382l-.106.07v1.737h-1.736l-.07.106c-.887 1.31-1.383 2.834-1.383 4.428 0 1.594.496 3.118 1.382 4.429l.07.106z" fill="#202D37"/>
                <path d="M73.794 17.536a3.175 3.175 0 0 1-3.189 3.189 3.198 3.198 0 0 1-3.188-3.189 3.175 3.175 0 0 1 3.188-3.188 3.175 3.175 0 0 1 3.189 3.188m-6.908 0a3.72 3.72 0 1 0 7.438.001 3.72 3.72 0 0 0-7.438 0" fill="#202D37"/>
                <mask id="tzpviqecwh" fill="#fff">
                    <use xlink:href="#4olgwlvakg"/>
                </mask>
                <path d="M56.966 31.176h.957v-.957h-.957v.957zm-16.084 19.06c.815 0 1.56-.32 2.126-.887a3.052 3.052 0 0 0 .177-4.11l13.498-13.497h1.63v-2.019h-2.02v1.63L42.795 44.85a2.904 2.904 0 0 0-1.913-.708c-.814 0-1.558.319-2.125.885-1.134 1.134-1.17 2.87-.177 4.074l-6.554 6.554c-2.268-2.09-5.846-2.019-8.042.178-2.267 2.267-2.267 5.987 0 8.254a5.824 5.824 0 0 0 4.145 1.736c1.523 0 3.011-.567 4.038-1.7 2.197-2.197 2.268-5.74.178-8.042l6.554-6.554c.602.46 1.24.708 1.983.708z" fill="#202D37" mask="url(#tzpviqecwh)"/>
                <path d="m77.018 85.662 1.594-1.594 1.594 1.594a15.982 15.982 0 0 1-3.188 0zM21.15 69.295c-.886-.673-1.63-1.453-2.303-2.303h2.303v2.303zM2.55.496A15.148 15.148 0 0 0 .249 5.243l-.035.177L1.98 7.187l-.032.217a11.263 11.263 0 0 0-.212 2.197c0 .673.07 1.346.177 2.054L0 13.568l.035.178c.85 2.975 2.551 5.526 4.925 7.51v1.275c0 4.641.531 9.318 1.594 13.817l-1.665 2.905 2.94 1.665a61.021 61.021 0 0 0 6.413 13.78 15.22 15.22 0 0 0-.815 4.89c0 2.55.637 5.101 1.877 7.298l.071.106h2.763a13.177 13.177 0 0 0 2.976 2.976v2.763l.107.07c3.684 2.056 8.254 2.41 12.222 1.064a60.204 60.204 0 0 0 13.78 6.377l1.666 2.94 2.94-1.665a61.613 61.613 0 0 0 15.057 1.559c1.984 2.373 4.57 4.11 7.51 4.924l.177.035 1.842-1.983c1.387.207 2.773.21 4.16-.022l2.04 2.04.177-.035a14.963 14.963 0 0 0 4.712-2.302v.096l.425-.402v-.12L88 84.67V81.48l-.46.496a12.586 12.586 0 0 1-6.715 3.63l-2.355-2.354-2.267 2.267c-2.232-.425-4.322-1.488-6.058-3.047l-.07-.07h-.107c-.992.035-1.913.07-2.87.106-.531-.638-.992-1.382-1.417-2.126l-.07-.106h-.178c-3.543-.035-7.085-.354-10.628-1.027h-.07l-5.669 3.223-3.295-5.703-.07-.036a58.714 58.714 0 0 1-9.637-4.605l-.106-.071-.106.07c-.78.426-1.559.816-2.374 1.1-.815-.497-1.63-1.064-2.409-1.595l-.07-.071-.107.035c-3.295.638-6.625-.07-9.282-1.913v-3.223h-3.224a12.346 12.346 0 0 1-2.125-6.944c0-.78.035-1.559.212-2.338l.036-.107-.071-.07c-.531-.78-1.063-1.595-1.594-2.41.283-.814.637-1.629 1.098-2.373l.07-.106-.07-.107a58.714 58.714 0 0 1-4.605-9.636l-.036-.07-5.704-3.295 3.224-5.668v-.071a57.51 57.51 0 0 1-1.027-10.664v-.177l-.177-.035c-.78-.39-1.453-.886-2.161-1.417 0-.957.035-1.913.106-2.87v-.106l-.07-.071a12.183 12.183 0 0 1-3.048-6.058l2.268-2.267-2.086-2.086.031-.217A12.508 12.508 0 0 1 6.341.46L6.837 0H3.614L2.55.496z" fill="#202D37" mask="url(#tzpviqecwh)"/>
            </g>
        </g>
        <g mask="url(#bxcu1kc8ib)">
            <g transform="rotate(-180 50 146.035)">
                <path d="M54.876 20.973c0 1.7 1.382 3.046 3.047 3.046 1.7 0 3.082-1.346 3.046-3.046 0-1.7-1.346-3.047-3.046-3.047a3.024 3.024 0 0 0-3.047 3.047M70.216 30.184c0-1.7-1.382-3.047-3.047-3.047a3.024 3.024 0 0 0-3.047 3.047c0 1.7 1.382 3.046 3.047 3.046 1.665 0 3.011-1.381 3.047-3.046M78.576 33.266l-.673-.673.673-.674.674.674-.674.673zm.355 34.895V57.887a2.981 2.981 0 0 0 2.763-2.976c0-1.558-1.204-2.87-2.763-2.975V33.868l1.133-1.134-1.417-1.417-1.417 1.417 1.134 1.134v18.068c-1.523.106-2.763 1.417-2.763 2.975 0 1.56 1.204 2.87 2.763 2.976v10.274c-3.118.106-5.562 2.692-5.562 5.81 0 3.188 2.622 5.81 5.81 5.81 1.559 0 2.976-.602 4.145-1.665a5.73 5.73 0 0 0 1.736-4.145c0-3.118-2.48-5.704-5.562-5.81zM55.55 8.928l.672.673-.673.673-.673-.673.673-.673zm-35.57.991h10.274c.107 1.524 1.417 2.764 2.976 2.764 1.524 0 2.87-1.205 2.976-2.764h18.068l1.133 1.134 1.417-1.417-1.417-1.417-1.133 1.134H36.206C36.1 7.829 34.79 6.589 33.23 6.589s-2.87 1.205-2.976 2.764H19.981c-.107-3.118-2.693-5.562-5.81-5.562-3.189 0-5.81 2.621-5.81 5.81 0 3.188 2.621 5.81 5.81 5.81 3.117 0 5.633-2.516 5.81-5.492zM67.417 17.536a3.198 3.198 0 0 0 3.188 3.189 3.175 3.175 0 0 0 3.189-3.189 3.175 3.175 0 0 0-3.189-3.188 3.175 3.175 0 0 0-3.188 3.188" fill="#202D37"/>
                <path d="M64.618 13.533h1.205a6.168 6.168 0 0 0-1.453 4.003c0 1.488.567 2.905 1.453 4.003h-1.205c-.779-1.169-1.169-2.586-1.24-4.003 0-1.417.461-2.798 1.24-4.003zm1.984 8.715a6.015 6.015 0 0 0 4.003 1.488 6.165 6.165 0 0 0 3.968-1.417v1.204a6.923 6.923 0 0 1-3.968 1.24 7.117 7.117 0 0 1-4.003-1.24v-1.275zm7.723-4.712a3.72 3.72 0 1 1-7.438.001 3.72 3.72 0 0 1 7.438 0zm-7.723-5.987a8.021 8.021 0 0 1 4.003-1.31c1.382 0 2.764.46 3.968 1.24v1.204a6.165 6.165 0 0 0-3.968-1.417c-1.487 0-2.905.602-4.003 1.488v-1.205zm8.857 1.984h1.204a7.033 7.033 0 0 1 1.24 4.003 7.117 7.117 0 0 1-1.24 4.003H75.46a6.41 6.41 0 0 0 1.417-4.003 6.41 6.41 0 0 0-1.417-4.003zm-11.124 8.538h1.736v1.771l.106.071c1.31.886 2.834 1.382 4.428 1.382a7.659 7.659 0 0 0 4.429-1.417l.106-.071V22.07h1.736l.07-.106c.887-1.311 1.383-2.835 1.383-4.429 0-1.594-.496-3.117-1.382-4.428l-.071-.106H75.14v-1.736l-.106-.071c-1.311-.886-2.834-1.382-4.429-1.382-1.594 0-3.117.496-4.428 1.382l-.106.07v1.737h-1.736l-.07.106c-.887 1.31-1.383 2.834-1.383 4.428 0 1.594.496 3.118 1.382 4.429l.07.106z" fill="#202D37"/>
                <path d="M73.794 17.536a3.175 3.175 0 0 1-3.189 3.189 3.198 3.198 0 0 1-3.188-3.189 3.175 3.175 0 0 1 3.188-3.188 3.175 3.175 0 0 1 3.189 3.188m-6.908 0a3.72 3.72 0 1 0 7.438.001 3.72 3.72 0 0 0-7.438 0" fill="#202D37"/>
                <mask id="iakpmdnykj" fill="#fff">
                    <use xlink:href="#iwpqb54poi"/>
                </mask>
                <path d="M56.966 31.176h.957v-.957h-.957v.957zm-16.084 19.06c.815 0 1.56-.32 2.126-.887a3.052 3.052 0 0 0 .177-4.11l13.498-13.497h1.63v-2.019h-2.02v1.63L42.795 44.85a2.904 2.904 0 0 0-1.913-.708c-.814 0-1.558.319-2.125.885-1.134 1.134-1.17 2.87-.177 4.074l-6.554 6.554c-2.268-2.09-5.846-2.019-8.042.178-2.267 2.267-2.267 5.987 0 8.254a5.824 5.824 0 0 0 4.145 1.736c1.523 0 3.011-.567 4.038-1.7 2.197-2.197 2.268-5.74.178-8.042l6.554-6.554c.602.46 1.24.708 1.983.708z" fill="#202D37" mask="url(#iakpmdnykj)"/>
                <path d="m77.018 85.662 1.594-1.594 1.594 1.594a15.982 15.982 0 0 1-3.188 0zM21.15 69.295c-.886-.673-1.63-1.453-2.303-2.303h2.303v2.303zM2.55.496A15.148 15.148 0 0 0 .249 5.243l-.035.177L1.98 7.187l-.032.217a11.263 11.263 0 0 0-.212 2.197c0 .673.07 1.346.177 2.054L0 13.568l.035.178c.85 2.975 2.551 5.526 4.925 7.51v1.275c0 4.641.531 9.318 1.594 13.817l-1.665 2.905 2.94 1.665a61.021 61.021 0 0 0 6.413 13.78 15.22 15.22 0 0 0-.815 4.89c0 2.55.637 5.101 1.877 7.298l.071.106h2.763a13.177 13.177 0 0 0 2.976 2.976v2.763l.107.07c3.684 2.056 8.254 2.41 12.222 1.064a60.204 60.204 0 0 0 13.78 6.377l1.666 2.94 2.94-1.665a61.613 61.613 0 0 0 15.057 1.559c1.984 2.373 4.57 4.11 7.51 4.924l.177.035 1.842-1.983c1.387.207 2.773.21 4.16-.022l2.04 2.04.177-.035a14.963 14.963 0 0 0 4.712-2.302v.096l.425-.402v-.12L88 84.67V81.48l-.46.496a12.586 12.586 0 0 1-6.715 3.63l-2.355-2.354-2.267 2.267c-2.232-.425-4.322-1.488-6.058-3.047l-.07-.07h-.107c-.992.035-1.913.07-2.87.106-.531-.638-.992-1.382-1.417-2.126l-.07-.106h-.178c-3.543-.035-7.085-.354-10.628-1.027h-.07l-5.669 3.223-3.295-5.703-.07-.036a58.714 58.714 0 0 1-9.637-4.605l-.106-.071-.106.07c-.78.426-1.559.816-2.374 1.1-.815-.497-1.63-1.064-2.409-1.595l-.07-.071-.107.035c-3.295.638-6.625-.07-9.282-1.913v-3.223h-3.224a12.346 12.346 0 0 1-2.125-6.944c0-.78.035-1.559.212-2.338l.036-.107-.071-.07c-.531-.78-1.063-1.595-1.594-2.41.283-.814.637-1.629 1.098-2.373l.07-.106-.07-.107a58.714 58.714 0 0 1-4.605-9.636l-.036-.07-5.704-3.295 3.224-5.668v-.071a57.51 57.51 0 0 1-1.027-10.664v-.177l-.177-.035c-.78-.39-1.453-.886-2.161-1.417 0-.957.035-1.913.106-2.87v-.106l-.07-.071a12.183 12.183 0 0 1-3.048-6.058l2.268-2.267-2.086-2.086.031-.217A12.508 12.508 0 0 1 6.341.46L6.837 0H3.614L2.55.496z" fill="#202D37" mask="url(#iakpmdnykj)"/>
            </g>
        </g>
    </g>
</svg>
