<?xml version="1.0" standalone="no"?>
<!DOCTYPE svg PUBLIC "-//W3C//DTD SVG 20010904//EN"
 "http://www.w3.org/TR/2001/REC-SVG-20010904/DTD/svg10.dtd">
<svg version="1.0" xmlns="http://www.w3.org/2000/svg"
 width="1280.000000pt" height="720.000000pt" viewBox="0 0 1280.000000 720.000000"
 preserveAspectRatio="xMidYMid meet">
<metadata>
Created by potrace 1.16, written by Peter Selinger 2001-2019
</metadata>
<g transform="translate(0.000000,720.000000) scale(0.100000,-0.100000)"
fill="#000000" stroke="none">
<path d="M5610 5429 c-457 -48 -895 -275 -1201 -621 -37 -42 -70 -73 -74 -70
-4 4 -5 2 -3 -3 3 -10 -126 -207 -133 -202 -2 1 -3 1 -2 -1 0 -2 -27 -63 -62
-135 -77 -160 -115 -267 -149 -418 -138 -622 37 -1249 474 -1702 130 -135 236
-222 375 -306 52 -32 91 -62 87 -66 -4 -5 -2 -5 4 -2 6 4 38 -6 70 -22 71 -34
179 -77 216 -86 16 -4 25 -12 21 -18 -3 -6 -1 -7 5 -3 10 6 132 -22 142 -34 3
-3 13 -5 23 -6 66 -3 78 -5 74 -11 -6 -10 3 -10 272 -19 347 -11 579 35 866
170 367 174 666 459 861 821 26 50 52 92 56 93 4 2 6 7 3 12 -2 4 11 45 29 91
131 324 160 726 80 1087 -14 63 -26 122 -27 133 -1 10 -4 19 -8 19 -10 0 -30
80 -23 92 4 6 3 8 -3 5 -6 -4 -18 14 -28 41 -61 163 -202 390 -334 540 -44 49
-78 93 -75 96 2 3 1 4 -2 2 -3 -3 -45 29 -92 70 -135 116 -377 273 -465 300
-12 4 -68 28 -125 55 -56 26 -114 48 -130 47 -15 -1 -73 8 -128 20 -186 40
-405 51 -594 31z m31 -422 c209 -207 253 -264 317 -400 73 -156 93 -249 72
-342 -18 -81 -88 -215 -161 -310 -74 -95 -364 -385 -385 -385 -9 0 -150 -127
-233 -210 -105 -103 -340 -366 -375 -418 l-30 -43 17 -67 c43 -174 56 -311 41
-426 -5 -37 -11 -46 -26 -46 -49 0 -214 218 -287 378 -38 82 -43 103 -48 188
-7 118 6 180 63 294 88 175 331 460 533 625 40 33 117 101 169 152 l96 92 -2
550 c-3 589 -5 552 39 560 4 0 94 -86 200 -192z m794 -99 c16 -24 72 -89 138
-160 20 -22 37 -43 37 -46 0 -2 8 -12 18 -21 10 -9 27 -31 37 -48 11 -18 23
-33 27 -33 4 0 8 -7 8 -15 0 -7 6 -18 13 -22 13 -9 32 -44 42 -81 4 -12 11
-20 16 -17 5 4 9 -3 9 -14 0 -12 3 -21 8 -21 4 0 15 -27 26 -60 10 -33 22 -60
27 -60 5 0 9 -11 9 -25 0 -14 5 -25 10 -25 6 0 10 -14 10 -30 0 -18 6 -33 15
-36 9 -4 15 -19 15 -40 0 -19 5 -34 10 -34 6 0 10 -20 10 -44 0 -26 6 -48 15
-56 12 -10 15 -37 15 -125 0 -88 -3 -115 -15 -125 -8 -7 -15 -27 -15 -46 0
-18 -4 -36 -10 -39 -5 -3 -10 -17 -10 -29 0 -13 -6 -28 -13 -34 -7 -6 -19 -27
-27 -47 -7 -19 -18 -35 -23 -35 -12 0 -36 -31 -37 -47 0 -13 -79 -93 -92 -93
-4 0 -8 -7 -8 -15 0 -8 -5 -15 -11 -15 -6 0 -40 -20 -74 -44 -35 -24 -73 -47
-84 -51 -12 -3 -21 -11 -21 -16 0 -5 -9 -9 -20 -9 -11 0 -20 -4 -20 -10 0 -5
-11 -10 -24 -10 -14 0 -28 -4 -31 -10 -3 -5 -15 -10 -25 -10 -10 0 -25 -7 -34
-15 -8 -8 -26 -15 -40 -15 -14 0 -26 -4 -26 -9 0 -5 -19 -8 -42 -8 -24 0 -83
-12 -133 -27 -49 -14 -121 -36 -160 -47 -38 -12 -113 -36 -165 -54 -52 -18
-130 -40 -174 -50 -76 -16 -81 -19 -160 -95 -45 -43 -86 -76 -92 -72 -6 4 -8
51 -4 124 l5 117 40 43 c22 23 80 80 129 127 50 48 108 103 129 124 22 20 42
37 45 37 3 0 28 22 56 49 78 75 128 121 132 121 5 0 106 103 194 198 41 45
105 107 141 138 63 53 66 58 77 119 7 34 12 118 12 186 0 153 47 664 65 712
10 24 31 21 50 -5z m672 -1775 c4 -27 8 -109 8 -183 0 -137 -17 -248 -52 -335
-36 -89 -107 -241 -117 -248 -30 -22 -370 15 -581 63 -251 57 -401 83 -518 88
l-118 4 -29 -33 c-16 -19 -39 -47 -52 -63 l-24 -28 -40 60 c-88 130 -80 241
19 286 84 38 179 46 546 46 196 0 379 3 407 8 55 9 106 41 259 163 44 35 96
76 115 92 19 15 62 50 95 77 33 27 63 49 67 50 4 0 10 -21 15 -47z"/>
</g>
</svg>
