<?xml version="1.0" standalone="no"?>
<!DOCTYPE svg PUBLIC "-//W3C//DTD SVG 20010904//EN"
 "http://www.w3.org/TR/2001/REC-SVG-20010904/DTD/svg10.dtd">
<svg version="1.0" xmlns="http://www.w3.org/2000/svg"
 width="1280.000000pt" height="720.000000pt" viewBox="0 0 1280.000000 720.000000"
 preserveAspectRatio="xMidYMid meet">
<metadata>
Created by potrace 1.16, written by Peter Selinger 2001-2019
</metadata>
<g transform="translate(0.000000,720.000000) scale(0.100000,-0.100000)"
fill="#000000" stroke="none">
<path d="M5255 6314 c-560 -33 -1037 -204 -1468 -526 -155 -117 -386 -347
-499 -498 -269 -360 -427 -738 -495 -1180 -21 -142 -25 -529 -5 -665 45 -320
129 -587 267 -852 598 -1150 1969 -1679 3205 -1236 392 140 776 399 1047 706
356 401 559 844 635 1382 19 137 16 524 -5 665 -87 566 -326 1040 -726 1441
-374 373 -817 610 -1336 714 -185 37 -456 58 -620 49z m275 -94 c457 -31 881
-173 1251 -418 571 -380 953 -951 1074 -1607 76 -411 45 -830 -91 -1226 -292
-854 -1054 -1494 -1963 -1648 -640 -109 -1300 27 -1836 376 -158 103 -259 187
-411 338 -392 390 -637 890 -705 1440 -15 125 -15 440 0 560 70 538 295 1015
662 1399 479 501 1110 776 1824 794 28 1 115 -3 195 -8z"/>
<path d="M5115 5579 c-412 -53 -801 -240 -1098 -528 -277 -269 -454 -588 -528
-957 -27 -137 -37 -410 -20 -551 101 -821 755 -1480 1596 -1608 458 -69 933
24 1323 261 293 177 550 456 697 753 254 512 257 1081 11 1586 -276 564 -825
954 -1466 1040 -116 16 -404 18 -515 4z m495 -117 c0 -4 -6 -32 -14 -62 -8
-30 -19 -80 -24 -110 -6 -30 -13 -62 -17 -71 -4 -11 24 -41 102 -106 59 -49
155 -141 213 -203 58 -62 149 -156 203 -209 264 -260 414 -411 662 -665 148
-153 274 -284 279 -293 6 -11 -34 -56 -170 -191 -99 -96 -335 -329 -525 -516
-432 -425 -554 -541 -679 -646 -35 -30 -70 -60 -78 -67 -32 -30 -259 -205
-340 -263 l-43 -30 2 125 2 124 -170 173 c-93 95 -209 216 -258 268 -49 52
-123 130 -164 173 -42 43 -81 84 -87 90 -6 7 -178 176 -382 376 -205 200 -372
369 -372 376 0 6 53 65 118 131 64 65 142 146 171 179 102 113 737 750 881
884 158 147 349 309 426 361 79 54 177 130 202 156 22 23 62 33 62 16z"/>
<path d="M5141 4524 c-100 -97 -181 -182 -181 -188 0 -6 94 -105 208 -219
l208 -207 119 123 c66 67 142 151 168 185 l48 63 -28 37 c-51 68 -205 236
-284 310 l-78 73 -180 -177z"/>
<path d="M4595 3951 c-66 -60 -142 -134 -169 -166 l-48 -56 53 -57 c30 -32 85
-94 122 -137 159 -186 216 -247 487 -519 168 -168 293 -286 304 -286 10 0 35
17 55 38 20 20 174 179 342 352 169 173 331 342 360 376 30 33 72 77 95 97 23
20 54 55 70 78 l29 42 -41 36 c-23 20 -92 82 -154 139 -62 56 -121 102 -131
102 -10 0 -140 -122 -302 -284 -156 -156 -293 -288 -305 -295 -18 -10 -28 -4
-87 48 -37 32 -75 72 -85 88 -10 15 -62 75 -115 132 -53 58 -124 139 -158 180
-73 92 -178 201 -192 201 -5 0 -64 -49 -130 -109z"/>
</g>
</svg>
