<?xml version="1.0" standalone="no"?>
<!DOCTYPE svg PUBLIC "-//W3C//DTD SVG 20010904//EN"
 "http://www.w3.org/TR/2001/REC-SVG-20010904/DTD/svg10.dtd">
<svg version="1.0" xmlns="http://www.w3.org/2000/svg"
 width="1280.000000pt" height="720.000000pt" viewBox="0 0 1280.000000 720.000000"
 preserveAspectRatio="xMidYMid meet">
<metadata>
Created by potrace 1.16, written by Peter Selinger 2001-2019
</metadata>
<g transform="translate(0.000000,720.000000) scale(0.100000,-0.100000)"
fill="#000000" stroke="none">
<path d="M5590 6069 c-1060 -76 -1964 -773 -2290 -1767 -84 -258 -121 -494
-121 -776 0 -197 3 -237 27 -401 119 -798 653 -1522 1395 -1889 302 -150 605
-236 939 -266 1314 -117 2514 768 2775 2046 34 171 46 293 46 509 0 207 -16
357 -57 542 -198 887 -866 1610 -1744 1888 -195 61 -397 98 -630 115 -160 11
-174 11 -340 -1z m369 -961 c11 -17 17 -81 23 -233 10 -272 10 -322 -1 -370
-11 -45 -2 -37 -226 -204 -88 -65 -192 -146 -230 -180 -146 -128 -172 -149
-250 -201 -176 -116 -204 -171 -149 -290 32 -70 66 -178 94 -300 47 -208 168
-387 385 -570 138 -116 182 -140 257 -140 80 0 139 34 273 160 141 132 201
203 255 304 59 111 73 161 74 270 0 89 -3 108 -26 158 -38 82 -102 143 -158
151 -78 10 -92 1 -240 -171 -106 -122 -106 -134 3 -314 26 -42 47 -83 47 -90
-1 -33 -80 -85 -148 -98 -149 -28 -336 87 -432 265 -141 265 32 553 443 737
127 57 276 98 358 98 70 0 210 -35 271 -67 28 -16 83 -66 142 -131 85 -94 103
-121 172 -258 42 -85 86 -161 96 -171 14 -12 36 -18 68 -18 52 0 85 21 121 80
l18 29 14 -34 c36 -88 28 -216 -18 -315 -16 -33 -61 -93 -104 -141 -78 -85
-301 -298 -386 -369 -27 -22 -64 -54 -84 -71 -55 -48 -345 -276 -387 -304 -20
-14 -60 -45 -88 -70 -28 -25 -71 -61 -96 -80 -61 -46 -97 -78 -140 -122 -19
-20 -59 -52 -89 -72 -79 -53 -107 -50 -216 24 -48 33 -118 87 -154 119 -36 32
-97 82 -136 111 -220 169 -365 318 -483 495 -37 55 -72 109 -78 120 -6 11 -29
54 -51 95 -38 70 -64 128 -126 290 -106 273 -126 635 -46 815 26 58 68 117
111 156 55 50 68 50 68 -1 0 -78 45 -130 112 -130 42 0 13 -25 492 435 155
149 326 307 381 352 175 143 201 171 209 226 8 53 31 63 55 25z"/>
</g>
</svg>
