<?xml version="1.0" standalone="no"?>
<!DOCTYPE svg PUBLIC "-//W3C//DTD SVG 20010904//EN"
 "http://www.w3.org/TR/2001/REC-SVG-20010904/DTD/svg10.dtd">
<svg version="1.0" xmlns="http://www.w3.org/2000/svg"
 width="1280.000000pt" height="720.000000pt" viewBox="0 0 1280.000000 720.000000"
 preserveAspectRatio="xMidYMid meet">
<metadata>
Created by potrace 1.16, written by Peter Selinger 2001-2019
</metadata>
<g transform="translate(0.000000,720.000000) scale(0.100000,-0.100000)"
fill="#000000" stroke="none">
<path d="M5255 6314 c-300 -18 -549 -69 -809 -165 -357 -134 -653 -325 -927
-598 -399 -400 -640 -878 -726 -1441 -21 -142 -25 -529 -5 -665 83 -586 326
-1078 732 -1485 712 -711 1782 -947 2740 -603 392 140 776 399 1047 706 356
402 559 843 635 1382 19 137 16 524 -5 665 -86 564 -326 1040 -726 1441 -373
372 -818 610 -1336 714 -185 37 -456 58 -620 49z"/>
</g>
</svg>
