<?xml version="1.0" standalone="no"?>
<!DOCTYPE svg PUBLIC "-//W3C//DTD SVG 20010904//EN"
 "http://www.w3.org/TR/2001/REC-SVG-20010904/DTD/svg10.dtd">
<svg version="1.0" xmlns="http://www.w3.org/2000/svg"
 width="1280.000000pt" height="720.000000pt" viewBox="0 0 1280.000000 720.000000"
 preserveAspectRatio="xMidYMid meet">
<metadata>
Created by potrace 1.16, written by Peter Selinger 2001-2019
</metadata>
<g transform="translate(0.000000,720.000000) scale(0.100000,-0.100000)"
fill="#000000" stroke="none">
<path d="M5255 6314 c-551 -30 -1038 -205 -1468 -526 -155 -117 -386 -347
-499 -498 -269 -360 -427 -737 -495 -1180 -21 -141 -24 -528 -5 -665 57 -403
188 -758 398 -1077 661 -1002 1932 -1421 3074 -1011 392 140 776 399 1047 706
356 401 558 842 635 1382 20 136 16 523 -5 665 -86 564 -326 1040 -726 1441
-374 373 -817 610 -1336 714 -179 36 -454 57 -620 49z m453 -1419 c159 -28
336 -103 425 -179 71 -61 85 -74 117 -112 67 -78 76 -89 104 -139 59 -103 77
-142 111 -245 66 -193 61 -377 -13 -515 -33 -59 -29 -88 16 -120 90 -68 143
-162 150 -270 3 -59 -1 -86 -27 -167 -18 -54 -36 -100 -42 -103 -5 -4 -18 4
-28 16 -29 37 -41 27 -186 -146 -65 -78 -135 -148 -141 -142 -3 3 10 34 29 69
79 141 114 325 101 537 -3 64 -10 121 -14 126 -4 6 -10 33 -13 62 -16 137
-168 394 -263 443 -16 8 -44 32 -62 52 -19 21 -38 38 -44 38 -7 0 -19 6 -27
14 -9 8 -27 21 -41 28 -65 36 -120 74 -120 83 0 6 19 39 42 75 46 70 117 144
197 205 57 44 65 71 25 81 -34 9 -223 -3 -238 -14 -6 -5 -33 -15 -61 -22 -85
-22 -205 -91 -265 -150 -51 -51 -97 -127 -134 -221 -10 -27 -25 -42 -61 -59
-27 -13 -81 -52 -121 -87 -62 -54 -78 -75 -114 -149 -22 -48 -40 -94 -38 -102
6 -28 32 -36 64 -19 119 66 205 101 270 110 68 10 79 9 185 -22 156 -46 261
-120 315 -221 10 -19 27 -44 36 -55 48 -57 70 -353 34 -478 -61 -217 -221
-406 -406 -481 -131 -54 -142 -56 -262 -56 -123 0 -160 6 -292 47 -148 46
-304 154 -418 289 -78 93 -183 288 -214 399 -43 154 -54 229 -54 384 0 145 6
199 40 364 16 80 70 229 101 282 64 108 111 181 128 198 17 18 18 14 24 -90 7
-133 30 -211 70 -233 27 -14 29 -14 53 13 13 16 24 41 24 56 0 16 7 31 15 34
8 4 23 23 34 44 86 164 198 284 377 403 135 89 250 138 335 141 19 1 48 5 64
9 49 12 124 11 213 -5z"/>
</g>
</svg>
