<svg width="23" height="23" viewBox="0 0 23 23" fill="none" xmlns="http://www.w3.org/2000/svg">
<path d="M22.5 20C22.5 20.1387 22.3833 20.4033 21.8338 20.7422C21.3121 21.064 20.5238 21.3719 19.5055 21.6375C17.4764 22.1669 14.6458 22.5 11.5 22.5C8.35424 22.5 5.52365 22.1669 3.49448 21.6375C2.47617 21.3719 1.68794 21.064 1.1662 20.7422C0.616724 20.4033 0.5 20.1387 0.5 20C0.5 19.8613 0.616724 19.5967 1.1662 19.2578C1.68794 18.936 2.47617 18.6281 3.49448 18.3625C5.52365 17.8331 8.35424 17.5 11.5 17.5C14.6458 17.5 17.4764 17.8331 19.5055 18.3625C20.5238 18.6281 21.3121 18.936 21.8338 19.2578C22.3833 19.5967 22.5 19.8613 22.5 20Z" stroke="#3D978D"/>
<path d="M11.5 10.9038L8.95 8.78365V3.02885L7.45 0.908654V0H15.55V0.605769L13.9 3.02885V8.78365L11.5 10.9038Z" fill="#44A196"/>
<path d="M4.75 7.11779V5.30048H3.85L1 7.875L11.5 19.6875L22 7.875L18.4 5.30048V7.11779L11.5 13.4784L4.75 7.11779Z" fill="#44A196"/>
</svg>
