<svg width="240" height="240" viewBox="0 0 240 240" fill="none" xmlns="http://www.w3.org/2000/svg">
<circle cx="119.5" cy="119.5" r="88.5" fill="#74B1E3"/>
<path d="M109.863 31.4617C88.2844 33.7356 67.603 44.4892 53.1543 60.8803C51.4073 62.8699 49.8491 64.3385 49.6602 64.1964C49.4713 64.0069 49.4241 64.1016 49.5186 64.3385C49.6602 64.8122 43.5691 74.1447 43.2386 73.9078C43.1442 73.8605 43.0969 73.8605 43.1442 73.9552C43.1442 74.05 41.8693 76.9397 40.2167 80.3506C36.5809 87.9302 34.7866 92.9991 33.1812 100.152C26.6651 129.618 34.9283 159.321 55.5624 180.781C61.7008 187.177 66.7059 191.298 73.2691 195.277C75.7245 196.793 77.566 198.214 77.3771 198.404C77.1882 198.641 77.2827 198.641 77.566 198.499C77.8493 198.309 79.3602 198.783 80.8712 199.541C84.2237 201.152 89.3232 203.189 91.0703 203.615C91.8258 203.804 92.2507 204.183 92.0618 204.468C91.9202 204.752 92.0146 204.799 92.2979 204.61C92.7701 204.326 98.5307 205.652 99.0029 206.22C99.1445 206.363 99.6167 206.457 100.089 206.505C103.205 206.647 103.772 206.742 103.583 207.026C103.3 207.5 103.725 207.5 116.426 207.926C132.811 208.447 143.765 206.268 157.317 199.872C174.646 191.63 188.764 178.128 197.971 160.979C199.199 158.611 200.427 156.621 200.616 156.574C200.805 156.479 200.899 156.242 200.757 156.005C200.663 155.816 201.277 153.873 202.127 151.694C208.312 136.345 209.681 117.301 205.904 100.2C205.243 97.2153 204.676 94.4203 204.629 93.8992C204.582 93.4255 204.44 92.9991 204.251 92.9991C203.779 92.9991 202.835 89.2093 203.165 88.6408C203.354 88.3566 203.307 88.2618 203.024 88.404C202.74 88.5935 202.174 87.7407 201.702 86.4617C198.821 78.7399 192.164 67.9862 185.931 60.8803C183.853 58.559 182.248 56.4746 182.39 56.3325C182.484 56.1904 182.437 56.143 182.295 56.2377C182.153 56.3799 180.17 54.8639 177.951 52.9216C171.577 47.4264 160.15 39.9888 155.995 38.7097C155.428 38.5202 152.784 37.3833 150.093 36.1042C147.448 34.8725 144.71 33.8303 143.954 33.8777C143.246 33.9251 140.507 33.4987 137.91 32.9302C129.128 31.0353 118.787 30.5142 109.863 31.4617ZM111.327 51.4531C121.195 61.2593 123.273 63.9595 126.295 70.4022C129.742 77.7924 130.686 82.1981 129.694 86.6038C128.845 90.441 125.539 96.789 122.092 101.289C118.598 105.79 104.905 119.528 103.914 119.528C103.489 119.528 96.8308 125.544 92.9118 129.476C87.9539 134.356 76.8577 146.815 75.2051 149.278L73.7885 151.315L74.5912 154.489C76.6216 162.732 77.2354 169.222 76.5272 174.67C76.2911 176.423 76.0078 176.849 75.2995 176.849C72.9858 176.849 65.1949 166.522 61.748 158.942C59.9537 155.058 59.7176 154.063 59.4815 150.036C59.151 144.446 59.7648 141.509 62.4563 136.109C66.6114 127.818 78.0854 114.317 87.6234 106.5C89.5121 104.937 93.1479 101.716 95.6032 99.2997L100.136 94.9414L100.042 68.8863C99.9 40.9836 99.8056 42.7364 101.883 42.3575C102.072 42.3575 106.322 46.4315 111.327 51.4531ZM148.818 56.143C149.573 57.2799 152.217 60.3592 155.334 63.7227C156.278 64.7649 157.081 65.7597 157.081 65.9018C157.081 65.9966 157.459 66.4703 157.931 66.8966C158.403 67.323 159.206 68.3652 159.678 69.1705C160.197 70.0233 160.764 70.7339 160.953 70.7339C161.142 70.7339 161.33 71.0655 161.33 71.4444C161.33 71.7761 161.614 72.2972 161.944 72.4866C162.558 72.913 163.455 74.5711 163.927 76.3239C164.116 76.8923 164.447 77.2713 164.683 77.1292C164.919 76.9397 165.108 77.2713 165.108 77.7924C165.108 78.3609 165.249 78.7872 165.486 78.7872C165.674 78.7872 166.194 80.0663 166.713 81.6296C167.185 83.1929 167.752 84.472 167.988 84.472C168.224 84.472 168.413 84.9931 168.413 85.6563C168.413 86.3195 168.649 86.8407 168.885 86.8407C169.169 86.8407 169.357 87.5039 169.357 88.2618C169.357 89.1145 169.641 89.8251 170.066 89.9673C170.491 90.1568 170.774 90.8673 170.774 91.8622C170.774 92.7623 171.01 93.4729 171.246 93.4729C171.529 93.4729 171.718 94.4203 171.718 95.5573C171.718 96.789 172.002 97.8312 172.427 98.2102C172.993 98.6839 173.135 99.963 173.135 104.132C173.135 108.301 172.993 109.58 172.427 110.053C172.049 110.385 171.718 111.332 171.718 112.233C171.718 113.085 171.529 113.938 171.246 114.08C171.01 114.222 170.774 114.885 170.774 115.454C170.774 116.07 170.491 116.78 170.16 117.065C169.83 117.349 169.263 118.344 168.885 119.291C168.555 120.191 168.035 120.949 167.799 120.949C167.233 120.949 166.099 122.418 166.052 123.176C166.052 123.792 162.322 127.581 161.708 127.581C161.519 127.581 161.33 127.913 161.33 128.292C161.33 128.671 161.094 129.003 160.811 129.003C160.528 129.003 158.922 129.95 157.317 131.087C155.664 132.224 153.87 133.314 153.351 133.503C152.784 133.645 152.359 134.024 152.359 134.261C152.359 134.498 151.934 134.687 151.415 134.687C150.895 134.687 150.47 134.877 150.47 135.161C150.47 135.398 149.951 135.635 149.337 135.635C148.676 135.635 148.015 135.824 147.873 136.109C147.732 136.345 147.165 136.582 146.693 136.582C146.221 136.582 145.512 136.914 145.087 137.293C144.71 137.672 143.86 138.003 143.199 138.003C142.538 138.003 141.971 138.193 141.971 138.43C141.971 138.667 141.074 138.809 139.988 138.809C138.855 138.809 136.069 139.377 133.708 140.088C131.394 140.751 127.995 141.793 126.153 142.314C124.359 142.883 120.818 144.02 118.362 144.873C115.907 145.725 112.224 146.767 110.146 147.241C106.558 147.999 106.322 148.141 102.591 151.742C100.467 153.779 98.5307 155.342 98.2474 155.152C97.9641 154.963 97.8696 152.736 98.0585 149.278L98.2946 143.736L100.183 141.699C101.222 140.609 103.961 137.909 106.274 135.682C108.635 133.408 111.374 130.803 112.366 129.808C113.404 128.86 114.349 128.055 114.49 128.055C114.632 128.055 115.812 127.013 117.135 125.734C120.818 122.181 123.178 120.002 123.367 120.002C123.603 120.002 128.372 115.122 132.528 110.622C134.463 108.49 137.485 105.553 139.185 104.084C142.16 101.574 142.302 101.337 142.821 98.447C143.152 96.8363 143.388 92.857 143.388 89.6357C143.388 82.3876 145.607 58.18 146.457 55.9061C146.929 54.7692 147.921 54.9113 148.818 56.143ZM180.548 140.23C180.737 141.509 180.926 145.394 180.926 148.899C180.926 155.389 180.123 160.648 178.471 164.769C176.771 168.985 173.418 176.186 172.946 176.518C171.529 177.56 155.475 175.807 145.512 173.533C133.661 170.833 126.578 169.601 121.054 169.364L115.482 169.175L114.113 170.738C113.357 171.638 112.271 172.965 111.657 173.723L110.524 175.049L108.635 172.207C104.48 166.048 104.858 160.79 109.532 158.658C113.499 156.858 117.984 156.479 135.313 156.479C144.568 156.479 153.209 156.337 154.531 156.1C157.128 155.674 159.536 154.158 166.76 148.378C168.838 146.72 171.293 144.778 172.191 144.02C173.088 143.309 175.118 141.651 176.676 140.372C178.234 139.093 179.651 138.051 179.84 138.003C180.029 138.003 180.312 138.998 180.548 140.23Z" fill="#2B2C40"/>
</svg>
