<svg width="232" height="232" viewBox="0 0 232 232" fill="none" xmlns="http://www.w3.org/2000/svg">
<rect x="2.82843" y="116" width="160.049" height="160.049" rx="4" transform="rotate(-45 2.82843 116)" fill="#2B2C40" stroke="#1D977B" stroke-width="4"/>
<circle cx="113.597" cy="114.5" r="68.5" fill="#2B2C40"/>
<path d="M125.942 73.0452C131.668 74.0664 138.042 76.8017 141.247 79.5734C143.804 81.7981 144.308 82.2723 145.461 83.6581C147.874 86.5028 148.198 86.904 149.206 88.7276C151.331 92.484 151.979 93.9064 153.204 97.6629C155.58 104.702 155.4 111.412 152.735 116.445C151.547 118.597 151.691 119.655 153.312 120.822C156.553 123.302 158.462 126.73 158.714 130.669C158.822 132.821 158.678 133.805 157.741 136.759C157.093 138.729 156.445 140.406 156.229 140.516C156.049 140.662 155.58 140.37 155.22 139.932C154.176 138.583 153.744 138.948 148.522 145.257C146.181 148.102 143.66 150.655 143.444 150.436C143.336 150.326 143.804 149.196 144.488 147.919C147.333 142.777 148.594 136.066 148.126 128.335C148.018 126.001 147.766 123.922 147.622 123.739C147.478 123.521 147.261 122.536 147.153 121.478C146.577 116.482 141.103 107.109 137.682 105.322C137.106 105.03 136.097 104.155 135.449 103.425C134.765 102.659 134.081 102.039 133.865 102.039C133.613 102.039 133.18 101.82 132.892 101.529C132.568 101.237 131.92 100.763 131.416 100.508C129.075 99.1946 127.094 97.8087 127.094 97.4805C127.094 97.2617 127.778 96.0581 128.607 94.7452C130.263 92.1923 132.82 89.4934 135.701 87.2687C137.754 85.664 138.042 84.6793 136.602 84.3146C135.377 83.9864 128.571 84.424 128.031 84.8252C127.814 85.0076 126.842 85.3723 125.834 85.6276C122.773 86.4299 118.451 88.9464 116.29 91.0981C114.454 92.9581 112.797 95.7299 111.465 99.1581C111.104 100.143 110.564 100.69 109.268 101.31C108.295 101.784 106.351 103.206 104.91 104.483C102.677 106.452 102.101 107.218 100.805 109.917C100.012 111.668 99.3642 113.345 99.4362 113.637C99.6523 114.658 100.589 114.95 101.741 114.33C106.027 111.923 109.124 110.646 111.465 110.318C113.913 109.953 114.31 109.99 118.127 111.12C123.745 112.798 127.526 115.497 129.471 119.181C129.831 119.873 130.443 120.785 130.768 121.186C132.496 123.265 133.288 134.061 131.992 138.619C129.795 146.533 124.033 153.426 117.371 156.162C112.653 158.131 112.257 158.204 107.935 158.204C103.506 158.204 102.173 157.985 97.4195 156.49C92.0896 154.812 86.4716 150.873 82.3661 145.95C79.5571 142.558 75.7757 135.446 74.6593 131.398C73.1107 125.782 72.7146 123.046 72.7146 117.393C72.7146 112.105 72.9307 110.136 74.1551 104.118C74.7313 101.2 76.676 95.7664 77.7924 93.8334C80.0973 89.8946 81.7899 87.2323 82.4021 86.6123C83.0143 85.9558 83.0503 86.1017 83.2664 89.8946C83.5185 94.7452 84.3468 97.5899 85.7873 98.3923C86.7597 98.9029 86.8317 98.9028 87.696 97.9181C88.1642 97.3346 88.5603 96.4229 88.5603 95.8758C88.5603 95.2923 88.8124 94.7452 89.1005 94.6358C89.3886 94.4899 89.9288 93.797 90.325 93.0311C93.4221 87.0499 97.4555 82.6734 103.902 78.3334C108.764 75.0876 112.905 73.3005 115.966 73.1911C116.65 73.1546 117.695 73.0087 118.271 72.8629C120.036 72.4252 122.737 72.4617 125.942 73.0452Z" fill="#1D977B"/>
</svg>
