<svg width="232" height="232" viewBox="0 0 232 232" fill="none" xmlns="http://www.w3.org/2000/svg">
<rect x="2.82843" y="116" width="160.049" height="160.049" rx="4" transform="rotate(-45 2.82843 116)" fill="#2B2C40" stroke="#74B1E3" stroke-width="4"/>
<circle cx="115.597" cy="114.5" r="68.5" fill="#74B1E3"/>
<path d="M108.138 46.3573C91.4355 48.1174 75.4278 56.4408 64.2444 69.1277C62.8921 70.6677 61.6861 71.8044 61.5399 71.6944C61.3937 71.5477 61.3572 71.621 61.4303 71.8044C61.5399 72.171 56.8253 79.3945 56.5695 79.2111C56.4964 79.1745 56.4598 79.1745 56.4964 79.2478C56.4964 79.3211 55.5096 81.5578 54.2305 84.1979C51.4163 90.0646 50.0275 93.988 48.7849 99.5248C43.7414 122.332 50.1372 145.322 66.1083 161.932C70.8594 166.882 74.7334 170.072 79.8135 173.152C81.7139 174.326 83.1393 175.426 82.9931 175.573C82.8469 175.756 82.92 175.756 83.1393 175.646C83.3585 175.499 84.5281 175.866 85.6976 176.453C88.2924 177.699 92.2395 179.276 93.5917 179.606C94.1765 179.753 94.5054 180.046 94.3592 180.266C94.2496 180.486 94.3227 180.523 94.542 180.376C94.9074 180.156 99.3662 181.183 99.7317 181.623C99.8413 181.733 100.207 181.806 100.572 181.843C102.984 181.953 103.423 182.026 103.277 182.246C103.057 182.613 103.386 182.613 113.218 182.943C125.899 183.346 134.378 181.659 144.867 176.709C158.28 170.329 169.208 159.879 176.334 146.605C177.285 144.772 178.235 143.232 178.381 143.195C178.527 143.122 178.6 142.939 178.491 142.755C178.418 142.609 178.893 141.105 179.551 139.419C184.338 127.539 185.398 112.798 182.474 99.5614C181.963 97.2514 181.524 95.088 181.488 94.6847C181.451 94.318 181.341 93.988 181.195 93.988C180.83 93.988 180.099 91.0546 180.355 90.6146C180.501 90.3946 180.464 90.3213 180.245 90.4313C180.026 90.578 179.587 89.918 179.222 88.9279C176.992 82.9512 171.839 74.6277 167.015 69.1277C165.407 67.331 164.164 65.7176 164.274 65.6076C164.347 65.4976 164.31 65.4609 164.201 65.5343C164.091 65.6443 162.556 64.4709 160.838 62.9676C155.905 58.7142 147.06 52.9574 143.844 51.9674C143.406 51.8207 141.359 50.9407 139.276 49.9507C137.229 48.9974 135.109 48.1907 134.525 48.2274C133.976 48.264 131.857 47.934 129.847 47.494C123.049 46.0273 115.045 45.624 108.138 46.3573ZM109.27 61.8309C116.909 69.421 118.517 71.511 120.856 76.4978C123.524 82.2179 124.255 85.6279 123.487 89.038C122.829 92.008 120.271 96.9214 117.603 100.405C114.899 103.888 104.3 114.522 103.533 114.522C103.204 114.522 98.0505 119.178 95.0171 122.222C91.1796 125.998 82.5911 135.642 81.3119 137.549L80.2155 139.125L80.8368 141.582C82.4083 147.962 82.8834 152.986 82.3352 157.202C82.1525 158.559 81.9332 158.889 81.385 158.889C79.5942 158.889 73.5639 150.896 70.896 145.029C69.5072 142.022 69.3244 141.252 69.1417 138.135C68.8859 133.809 69.361 131.535 71.4442 127.355C74.6603 120.938 83.5413 110.488 90.9238 104.438C92.3857 103.228 95.1998 100.735 97.1003 98.8648L100.609 95.4914L100.536 75.3244C100.426 53.7274 100.353 55.0841 101.961 54.7908C102.107 54.7908 105.396 57.9442 109.27 61.8309ZM138.289 65.4609C138.874 66.341 140.92 68.7243 143.332 71.3277C144.063 72.1344 144.685 72.9044 144.685 73.0144C144.685 73.0877 144.977 73.4544 145.343 73.7844C145.708 74.1144 146.329 74.9211 146.695 75.5444C147.097 76.2044 147.535 76.7544 147.682 76.7544C147.828 76.7544 147.974 77.0111 147.974 77.3044C147.974 77.5611 148.193 77.9645 148.449 78.1111C148.924 78.4411 149.619 79.7245 149.984 81.0812C150.13 81.5212 150.386 81.8145 150.569 81.7045C150.751 81.5578 150.898 81.8145 150.898 82.2179C150.898 82.6579 151.007 82.9879 151.19 82.9879C151.336 82.9879 151.738 83.9779 152.14 85.1879C152.506 86.3979 152.944 87.3879 153.127 87.3879C153.31 87.3879 153.456 87.7913 153.456 88.3046C153.456 88.8179 153.639 89.2213 153.821 89.2213C154.041 89.2213 154.187 89.7346 154.187 90.3213C154.187 90.9813 154.406 91.5313 154.735 91.6413C155.064 91.788 155.283 92.338 155.283 93.108C155.283 93.8047 155.466 94.3547 155.649 94.3547C155.868 94.3547 156.014 95.088 156.014 95.9681C156.014 96.9214 156.234 97.7281 156.562 98.0214C157.001 98.3881 157.111 99.3781 157.111 102.605C157.111 105.832 157.001 106.822 156.562 107.188C156.27 107.445 156.014 108.178 156.014 108.875C156.014 109.535 155.868 110.195 155.649 110.305C155.466 110.415 155.283 110.928 155.283 111.368C155.283 111.845 155.064 112.395 154.808 112.615C154.552 112.835 154.114 113.605 153.821 114.338C153.566 115.035 153.164 115.622 152.981 115.622C152.542 115.622 151.665 116.758 151.629 117.345C151.629 117.822 148.741 120.755 148.266 120.755C148.12 120.755 147.974 121.012 147.974 121.305C147.974 121.598 147.791 121.855 147.572 121.855C147.353 121.855 146.11 122.588 144.867 123.468C143.588 124.348 142.199 125.192 141.797 125.338C141.359 125.448 141.03 125.742 141.03 125.925C141.03 126.108 140.701 126.255 140.299 126.255C139.897 126.255 139.568 126.402 139.568 126.622C139.568 126.805 139.166 126.988 138.691 126.988C138.179 126.988 137.668 127.135 137.558 127.355C137.448 127.539 137.01 127.722 136.644 127.722C136.279 127.722 135.731 127.979 135.402 128.272C135.109 128.565 134.451 128.822 133.94 128.822C133.428 128.822 132.99 128.969 132.99 129.152C132.99 129.335 132.295 129.445 131.455 129.445C130.577 129.445 128.421 129.885 126.594 130.435C124.803 130.949 122.172 131.755 120.746 132.159C119.357 132.599 116.616 133.479 114.716 134.139C112.816 134.799 109.965 135.605 108.357 135.972C105.579 136.559 105.396 136.669 102.509 139.455C100.865 141.032 99.3662 142.242 99.1469 142.095C98.9276 141.949 98.8545 140.225 99.0007 137.549L99.1835 133.259L100.645 131.682C101.449 130.839 103.569 128.749 105.36 127.025C107.187 125.265 109.307 123.248 110.075 122.478C110.879 121.745 111.609 121.122 111.719 121.122C111.829 121.122 112.742 120.315 113.766 119.325C116.616 116.575 118.444 114.888 118.59 114.888C118.773 114.888 122.464 111.112 125.68 107.628C127.179 105.978 129.518 103.705 130.833 102.568C133.136 100.625 133.245 100.441 133.647 98.2048C133.903 96.9581 134.086 93.878 134.086 91.3847C134.086 85.7746 135.804 67.0376 136.462 65.2776C136.827 64.3976 137.595 64.5076 138.289 65.4609ZM162.849 130.545C162.995 131.535 163.141 134.542 163.141 137.255C163.141 142.279 162.52 146.349 161.241 149.539C159.925 152.802 157.33 158.376 156.964 158.632C155.868 159.439 143.442 158.082 135.731 156.322C126.557 154.232 121.075 153.279 116.799 153.096L112.487 152.949L111.427 154.159C110.842 154.856 110.001 155.882 109.526 156.469L108.649 157.496L107.187 155.296C103.971 150.529 104.264 146.459 107.882 144.809C110.952 143.415 114.424 143.122 127.836 143.122C135 143.122 141.688 143.012 142.711 142.829C144.721 142.499 146.585 141.325 152.177 136.852C153.785 135.569 155.685 134.065 156.38 133.479C157.074 132.929 158.646 131.645 159.852 130.655C161.058 129.665 162.154 128.859 162.3 128.822C162.447 128.822 162.666 129.592 162.849 130.545Z" fill="#2B2C40"/>
</svg>
