<svg width="232" height="232" viewBox="0 0 232 232" fill="none" xmlns="http://www.w3.org/2000/svg">
<rect x="2.82843" y="116" width="160.049" height="160.049" rx="4" transform="rotate(-45 2.82843 116)" fill="#2B2C40" stroke="#979797" stroke-width="4"/>
<circle cx="115.597" cy="114.5" r="68.5" fill="#979797"/>
<path d="M110.838 46.2444C82.814 48.2785 58.9143 66.9342 50.2956 93.5393C48.0749 100.445 47.0967 106.761 47.0967 114.309C47.0967 119.582 47.176 120.653 47.8105 125.042C50.9566 146.401 65.0743 165.78 84.691 175.603C92.6752 179.618 100.686 181.919 109.516 182.722C144.255 185.854 175.98 162.166 182.881 127.96C183.779 123.383 184.097 120.118 184.097 114.336C184.097 108.796 183.674 104.781 182.59 99.8292C177.355 76.0881 159.695 56.7365 136.482 49.2956C131.327 47.6629 125.987 46.6726 119.827 46.2176C115.597 45.9232 115.227 45.9232 110.838 46.2444ZM120.593 71.9661C120.884 72.4212 121.043 74.1342 121.201 78.2025C121.466 85.4828 121.466 86.8211 121.175 88.1058C120.884 89.3103 121.122 89.0962 115.2 93.566C112.874 95.3058 110.124 97.4738 109.119 98.3838C105.26 101.81 104.572 102.372 102.51 103.764C97.857 106.869 97.1167 108.341 98.5708 111.526C99.4168 113.399 100.316 116.29 101.056 119.555C102.299 125.123 105.497 129.914 111.234 134.812C114.883 137.917 116.046 138.559 118.029 138.559C120.144 138.559 121.704 137.649 125.246 134.277C128.974 130.744 130.56 128.843 131.988 126.14C133.548 123.169 133.918 121.831 133.944 118.913C133.944 116.531 133.865 116.022 133.257 114.684C132.252 112.489 130.56 110.857 129.08 110.643C127.018 110.375 126.648 110.616 122.735 115.219C119.932 118.485 119.932 118.806 122.814 123.624C123.502 124.748 124.057 125.845 124.057 126.033C124.03 126.916 121.942 128.308 120.144 128.656C116.205 129.405 111.261 126.327 108.723 121.563C104.995 114.47 109.569 106.761 120.435 101.837C123.792 100.311 127.732 99.2136 129.899 99.2136C131.75 99.2136 135.451 100.15 137.064 101.007C137.804 101.435 139.258 102.773 140.818 104.513C143.065 107.029 143.541 107.752 145.365 111.419C146.476 113.694 147.639 115.728 147.904 115.996C148.274 116.317 148.855 116.477 149.701 116.477C151.076 116.477 151.948 115.915 152.9 114.336L153.376 113.56L153.746 114.47C154.698 116.825 154.486 120.251 153.27 122.901C152.847 123.784 151.658 125.39 150.521 126.675C148.459 128.95 142.563 134.651 140.316 136.552C139.602 137.141 138.624 137.997 138.095 138.452C136.641 139.737 128.974 145.839 127.864 146.589C127.335 146.964 126.277 147.793 125.537 148.462C124.797 149.132 123.66 150.095 122.999 150.604C121.387 151.835 120.435 152.691 119.298 153.869C118.796 154.404 117.738 155.261 116.945 155.796C114.856 157.215 114.116 157.134 111.234 155.154C109.965 154.271 108.115 152.825 107.163 151.969C106.211 151.112 104.599 149.774 103.568 148.998C97.7513 144.474 93.9178 140.486 90.7981 135.749C89.82 134.277 88.8946 132.831 88.736 132.537C88.5774 132.242 87.9693 131.091 87.3877 129.994C86.3831 128.12 85.6957 126.568 84.0565 122.232C81.2541 114.925 80.7254 105.236 82.8404 100.418C83.5278 98.8656 84.6382 97.2865 85.775 96.2426C87.2291 94.9043 87.5727 94.9043 87.5727 96.2694C87.5727 98.3571 88.7624 99.7489 90.5338 99.7489C91.6442 99.7489 90.8775 100.418 103.541 88.1058C107.639 84.1177 112.16 79.8888 113.614 78.6843C118.24 74.8568 118.928 74.1074 119.139 72.6353C119.351 71.2167 119.959 70.9491 120.593 71.9661Z" fill="#2B2C40"/>
</svg>
