<svg width="179" height="178" viewBox="0 0 179 178" fill="none" xmlns="http://www.w3.org/2000/svg">
<circle cx="89.5" cy="89.5" r="88.5" fill="#5CC0E2"/>
<path d="M77.8775 1.33755C58.7081 3.8898 40.6088 12.8949 26.7901 26.7637C13.9019 39.7176 5.66652 55.0793 2.22347 72.8487C0.967221 79.446 0.501944 92.5925 1.29291 99.3825C5.99221 138.918 36.4213 170.653 75.5511 176.817C96.8608 180.14 118.962 175.661 137.107 164.248C150.74 155.725 162.698 142.289 169.537 127.987C181.355 103.331 181.495 75.9307 170.049 51.6121C157.207 24.4523 131.664 5.67157 101.839 1.53018C96.4421 0.759689 83.0421 0.663376 77.8775 1.33755ZM100.909 6.97177C100.909 7.16438 100.63 8.51276 100.257 9.95741C99.8851 11.4021 99.3733 13.8099 99.1407 15.2545C98.8615 16.6992 98.5358 18.2402 98.3497 18.6736C98.1636 19.2033 99.4664 20.648 103.096 23.7781C105.841 26.1377 110.307 30.568 113.006 33.5537C115.705 36.5393 119.939 41.066 122.451 43.6182C134.734 56.1387 141.714 63.4102 153.252 75.6417C160.139 83.0095 166.001 89.3179 166.234 89.7513C166.513 90.2811 164.652 92.4481 158.324 98.9491C153.718 103.572 142.737 114.792 133.897 123.797C113.797 144.264 108.121 149.85 102.305 154.906C100.676 156.351 99.0476 157.795 98.6754 158.132C97.1865 159.577 86.6247 168.004 82.856 170.797L80.8553 172.242L80.9484 166.223L81.0414 160.251L73.1317 151.92C68.8046 147.346 63.4074 141.519 61.1276 139.015C58.8477 136.51 55.4046 132.754 53.497 130.684C51.5428 128.613 49.7283 126.639 49.4491 126.35C49.1699 126.013 41.1672 117.874 31.6755 108.243C22.1373 98.612 14.3672 90.4737 14.3672 90.1366C14.3672 89.8477 16.8332 87.0065 19.8575 83.8282C22.8352 80.6981 26.4644 76.7975 27.8137 75.2083C32.5595 69.7667 62.1046 39.0916 68.8046 32.6387C76.156 25.5598 85.0428 17.7586 88.6254 15.2545C92.3011 12.6541 96.8608 8.99431 98.024 7.74226C99.0476 6.63467 100.909 6.15312 100.909 6.97177Z" fill="#2B2C40"/>
<path d="M79.0875 56.3859C74.4348 60.8993 70.666 64.8544 70.666 65.1336C70.666 65.4128 75.0396 70.0193 80.3438 75.3238L90.0215 84.9556L95.5583 79.2323C98.6292 76.1148 102.165 72.2062 103.375 70.6242L105.608 67.6928L104.306 65.9711C101.933 62.8071 94.7674 54.99 91.0917 51.5467L87.4625 48.15L79.0875 56.3859Z" fill="#2B2C40"/>
<path d="M53.6829 83.0477C50.6121 85.8395 47.076 89.2827 45.8198 90.7717L43.5864 93.3774L46.0524 96.0297C47.4482 97.5186 50.0073 100.404 51.7288 102.404C59.1267 111.059 61.7788 113.897 74.3878 126.554C82.2044 134.371 88.0204 139.861 88.5322 139.861C88.9975 139.861 90.1607 139.07 91.0912 138.093C92.0218 137.163 99.187 129.764 107.004 121.714C114.867 113.665 122.404 105.801 123.754 104.219C125.15 102.684 127.104 100.636 128.174 99.7056C129.244 98.775 130.686 97.1464 131.431 96.0762L132.78 94.1219L130.872 92.4468C129.802 91.5162 126.592 88.6313 123.707 85.9791C120.822 83.3734 118.077 81.233 117.612 81.233C117.147 81.233 111.098 86.9097 103.561 94.4476C96.3023 101.706 89.928 107.848 89.3697 108.174C88.5322 108.639 88.0669 108.36 85.3218 105.941C83.6003 104.452 81.8322 102.59 81.3669 101.846C80.9017 101.148 78.4822 98.3562 76.0162 95.7039C73.5503 93.0052 70.2468 89.2362 68.6649 87.3285C65.2683 83.0477 60.3829 77.9759 59.7315 77.9759C59.4989 77.9759 56.7538 80.2558 53.6829 83.0477Z" fill="#2B2C40"/>
</svg>
