<svg width="240" height="240" viewBox="0 0 240 240" fill="none" xmlns="http://www.w3.org/2000/svg">
<circle cx="120.5" cy="118.5" r="88.5" fill="#F56D23"/>
<path d="M114.352 30.3157C78.1457 32.9438 47.268 57.0464 36.133 91.4193C33.2638 100.341 32 108.502 32 118.254C32 125.066 32.1025 126.449 32.9222 132.121C36.9869 159.716 55.2266 184.752 80.5708 197.443C90.8861 202.63 101.236 205.604 112.644 206.641C157.526 210.687 198.514 180.084 207.429 135.89C208.59 129.977 209 125.758 209 118.288C209 111.13 208.453 105.943 207.053 99.5457C200.29 68.8729 177.473 43.8712 147.484 34.2579C140.823 32.1485 133.924 30.869 125.965 30.2811C120.5 29.9007 120.022 29.9007 114.352 30.3157ZM126.956 63.5475C127.331 64.1354 127.536 66.3485 127.741 71.6047C128.083 81.0106 128.083 82.7396 127.707 84.3995C127.331 85.9556 127.639 85.679 119.988 91.4539C116.982 93.7016 113.43 96.5027 112.132 97.6784C107.145 102.105 106.257 102.831 103.592 104.629C97.5809 108.64 96.6245 110.542 98.5031 114.657C99.5961 117.078 100.757 120.813 101.714 125.032C103.319 132.224 107.452 138.414 114.864 144.742C119.578 148.754 121.081 149.584 123.642 149.584C126.375 149.584 128.39 148.408 132.967 144.051C137.783 139.486 139.833 137.031 141.677 133.538C143.692 129.7 144.171 127.971 144.205 124.202C144.205 121.124 144.102 120.467 143.317 118.738C142.019 115.902 139.833 113.793 137.92 113.516C135.256 113.17 134.777 113.482 129.722 119.429C126.102 123.648 126.102 124.063 129.825 130.288C130.713 131.74 131.43 133.158 131.43 133.4C131.396 134.541 128.698 136.339 126.375 136.789C121.286 137.757 114.898 133.78 111.619 127.625C106.803 118.461 112.712 108.502 126.751 102.139C131.089 100.168 136.178 98.7504 138.979 98.7504C141.37 98.7504 146.152 99.9607 148.235 101.067C149.192 101.621 151.07 103.35 153.085 105.597C155.989 108.848 156.604 109.782 158.96 114.519C160.395 117.458 161.898 120.087 162.239 120.432C162.718 120.847 163.469 121.055 164.562 121.055C166.338 121.055 167.465 120.329 168.695 118.288L169.31 117.286L169.788 118.461C171.018 121.504 170.744 125.931 169.173 129.354C168.627 130.495 167.09 132.57 165.621 134.23C162.957 137.169 155.34 144.535 152.437 146.99C151.514 147.751 150.25 148.857 149.567 149.445C147.689 151.105 137.783 158.99 136.349 159.958C135.666 160.442 134.299 161.514 133.343 162.378C132.387 163.243 130.918 164.488 130.064 165.145C127.98 166.736 126.751 167.842 125.282 169.364C124.633 170.055 123.267 171.162 122.242 171.853C119.544 173.686 118.587 173.582 114.864 171.024C113.225 169.882 110.834 168.015 109.604 166.908C108.374 165.802 106.291 164.073 104.959 163.07C97.4442 157.226 92.4915 152.073 88.461 145.953C87.1972 144.051 86.0017 142.183 85.7968 141.803C85.5919 141.423 84.8063 139.936 84.0548 138.518C82.7568 136.097 81.8688 134.092 79.7511 128.49C76.1305 119.049 75.4473 106.531 78.1799 100.307C79.0679 98.3008 80.5025 96.2606 81.9712 94.912C83.8499 93.1829 84.2939 93.1829 84.2939 94.9465C84.2939 97.6438 85.831 99.442 88.1194 99.442C89.554 99.442 88.5635 100.307 104.925 84.3995C110.219 79.247 116.06 73.7833 117.938 72.2272C123.916 67.2822 124.804 66.3139 125.077 64.412C125.35 62.5793 126.136 62.2334 126.956 63.5475Z" fill="#2B2C40"/>
</svg>
