<svg width="230" height="230" viewBox="0 0 230 230" fill="none" xmlns="http://www.w3.org/2000/svg">
<rect x="2.82843" y="115" width="158.635" height="158.635" rx="4" transform="rotate(-45 2.82843 115)" fill="#2B2C40" stroke="#979797" stroke-width="4"/>
<circle cx="114.57" cy="114.583" r="71.6077" fill="#AAA0A8"/>
<path d="M104.626 40.8314C88.6456 42.9549 73.557 50.447 62.0369 61.9856C51.2926 72.763 44.4271 85.5437 41.5567 100.328C40.5095 105.816 40.1216 116.754 40.781 122.403C44.6986 155.296 70.0661 181.699 102.687 186.827C120.452 189.592 138.876 185.866 154.004 176.37C165.369 169.279 175.337 158.101 181.039 146.202C190.891 125.689 191.008 102.892 181.466 82.659C170.76 60.0625 149.465 44.4373 124.602 40.9917C120.103 40.3507 108.932 40.2705 104.626 40.8314ZM123.826 45.519C123.826 45.6793 123.594 46.8011 123.283 48.003C122.973 49.205 122.546 51.2082 122.353 52.4101C122.12 53.6121 121.848 54.8942 121.693 55.2547C121.538 55.6954 122.624 56.8974 125.65 59.5016C127.938 61.4648 131.662 65.1507 133.911 67.6347C136.161 70.1188 139.691 73.8848 141.785 76.0083C152.025 86.4251 157.844 92.4749 167.463 102.651C173.204 108.781 178.091 114.03 178.285 114.39C178.518 114.831 176.966 116.634 171.691 122.043C167.851 125.889 158.697 135.224 151.327 142.716C134.571 159.744 129.839 164.391 124.99 168.598C123.633 169.8 122.275 171.002 121.965 171.282C120.723 172.484 111.918 179.495 108.777 181.819L107.109 183.021L107.186 178.013L107.264 173.045L100.67 166.114C97.0626 162.308 92.5632 157.46 90.6626 155.376C88.762 153.293 85.8916 150.168 84.3013 148.445C82.6722 146.722 81.1595 145.08 80.9267 144.839C80.694 144.559 74.0224 137.788 66.1097 129.775C58.1581 121.762 51.6805 114.991 51.6805 114.711C51.6805 114.47 53.7362 112.107 56.2575 109.462C58.7399 106.858 61.7654 103.613 62.8902 102.291C66.8466 97.7634 91.4771 72.2422 97.0626 66.8735C103.191 60.984 110.6 54.4935 113.586 52.4101C116.651 50.2466 120.452 47.2017 121.422 46.16C122.275 45.2386 123.826 44.8379 123.826 45.519Z" fill="#2B2C40"/>
<path d="M106.144 87.7897C102.38 91.4417 99.3303 94.6419 99.3303 94.8678C99.3303 95.0937 102.869 98.8209 107.161 103.113L114.991 110.906L119.471 106.275C121.956 103.753 124.817 100.59 125.796 99.3103L127.603 96.9385L126.549 95.5454C124.629 92.9853 118.831 86.6603 115.857 83.8742L112.921 81.1259L106.144 87.7897Z" fill="#2B2C40"/>
<path d="M85.5893 109.362C83.1046 111.621 80.2434 114.407 79.227 115.612L77.4199 117.721L79.4152 119.867C80.5446 121.071 82.6152 123.406 84.0081 125.024C89.994 132.027 92.1398 134.324 102.342 144.564C108.667 150.889 113.373 155.332 113.787 155.332C114.163 155.332 115.104 154.692 115.857 153.901C116.61 153.148 122.408 147.162 128.733 140.649C135.095 134.136 141.194 127.773 142.285 126.493C143.415 125.25 144.996 123.594 145.862 122.841C146.728 122.088 147.895 120.77 148.497 119.904L149.589 118.323L148.045 116.968C147.18 116.215 144.582 113.88 142.248 111.734C139.914 109.626 137.693 107.894 137.316 107.894C136.94 107.894 132.045 112.487 125.947 118.586C120.074 124.46 114.916 129.429 114.464 129.693C113.787 130.069 113.41 129.844 111.189 127.886C109.796 126.681 108.366 125.175 107.989 124.573C107.613 124.008 105.655 121.749 103.66 119.603C101.664 117.419 98.9916 114.37 97.7116 112.826C94.9633 109.362 91.0104 105.259 90.4834 105.259C90.2951 105.259 88.074 107.103 85.5893 109.362Z" fill="#2B2C40"/>
</svg>
