<svg width="177" height="177" viewBox="0 0 177 177" fill="none" xmlns="http://www.w3.org/2000/svg">
<circle cx="88.5" cy="88.5" r="88.5" fill="#2B2C40"/>
<path d="M104.45 34.9416C111.848 36.2609 120.083 39.7949 124.224 43.3759C127.527 46.2502 128.179 46.8627 129.668 48.6532C132.785 52.3285 133.204 52.8468 134.507 55.2028C137.252 60.056 138.089 61.8937 139.671 66.7469C142.742 75.8409 142.509 84.5107 139.066 91.0132C137.531 93.7932 137.717 95.1596 139.811 96.6674C143.998 99.8715 146.464 104.301 146.79 109.39C146.929 112.17 146.743 113.442 145.534 117.258C144.696 119.803 143.859 121.97 143.579 122.112C143.347 122.3 142.742 121.923 142.277 121.358C140.927 119.614 140.369 120.086 133.622 128.237C130.598 131.912 127.341 135.211 127.062 134.928C126.922 134.787 127.527 133.326 128.411 131.677C132.087 125.033 133.716 116.363 133.111 106.374C132.971 103.358 132.645 100.673 132.459 100.437C132.273 100.154 131.994 98.882 131.854 97.5156C131.11 91.0603 124.038 78.9507 119.618 76.6419C118.873 76.2649 117.57 75.1341 116.733 74.1917C115.849 73.2022 114.965 72.4012 114.686 72.4012C114.36 72.4012 113.802 72.1185 113.429 71.7415C113.011 71.3646 112.173 70.752 111.522 70.4222C108.498 68.7259 105.938 66.9354 105.938 66.5113C105.938 66.2286 106.823 64.6737 107.893 62.9774C110.033 59.6791 113.336 56.1923 117.059 53.318C119.711 51.2448 120.083 49.9726 118.222 49.5014C116.64 49.0773 107.846 49.6427 107.148 50.161C106.869 50.3966 105.613 50.8678 104.31 51.1977C100.355 52.2343 94.7718 55.4855 91.9802 58.2655C89.6073 60.6686 87.467 64.2496 85.7455 68.6788C85.2802 69.951 84.5823 70.6578 82.9073 71.4588C81.651 72.0714 79.1385 73.909 77.2774 75.5582C74.3927 78.1026 73.6483 79.0921 71.9733 82.5789C70.9496 84.8406 70.1121 87.0081 70.2052 87.385C70.4844 88.7043 71.6941 89.0813 73.183 88.2803C78.7198 85.1704 82.7212 83.5212 85.7455 83.0972C88.9093 82.626 89.4212 82.6731 94.3531 84.1338C101.611 86.3013 106.497 89.7881 109.009 94.5471C109.475 95.4423 110.266 96.6203 110.684 97.1386C112.918 99.8244 113.941 113.772 112.266 119.661C109.428 129.886 101.984 138.792 93.376 142.326C87.2809 144.87 86.7691 144.964 81.1857 144.964C75.4628 144.964 73.7413 144.682 67.5997 142.75C60.7136 140.582 53.4552 135.493 48.1511 129.132C44.5219 124.75 39.6365 115.562 38.1941 110.332C36.1934 103.076 35.6816 99.5417 35.6816 92.2383C35.6816 85.406 35.9608 82.8616 37.5428 75.087C38.2872 71.3174 40.7997 64.2967 42.2421 61.7994C45.2198 56.7106 47.4066 53.2709 48.1976 52.4699C48.9886 51.6217 49.0351 51.8102 49.3143 56.7106C49.64 62.9774 50.7101 66.6527 52.5712 67.6893C53.8274 68.349 53.9205 68.3489 55.0372 67.0767C55.642 66.3228 56.1538 65.1449 56.1538 64.4381C56.1538 63.6842 56.4795 62.9774 56.8517 62.836C57.224 62.6476 57.9219 61.7523 58.4337 60.7628C62.4351 53.0353 67.6462 47.381 75.9746 41.7739C82.2559 37.5803 87.6066 35.2715 91.5614 35.1301C92.4454 35.083 93.7948 34.8945 94.5392 34.706C96.8191 34.1406 100.309 34.1877 104.45 34.9416Z" fill="#1D977B"/>
</svg>
